<svg width="19" height="21" viewBox="0 0 19 21" fill="none" xmlns="http://www.w3.org/2000/svg">
<path d="M3.25 2.16668V6.33334H15.75V2.16668H17.8406C18.4115 2.16668 18.875 2.63022 18.875 3.20105V19.8823C18.875 20.4531 18.4115 20.9167 17.8406 20.9167H1.15937C0.588542 20.9167 0.125 20.4531 0.125 19.8823V3.20105C0.125 2.63022 0.588542 2.16668 1.15937 2.16668H3.25ZM6.375 15.7083H4.29167V17.7917H6.375V15.7083ZM6.375 12.5833H4.29167V14.6667H6.375V12.5833ZM6.375 9.45834H4.29167V11.5417H6.375V9.45834ZM13.6667 0.0833435V4.25001H5.33333V0.0833435H13.6667Z" fill="#005BCB"/>
</svg>
