<svg width="160" height="161" viewBox="0 0 160 161" fill="none" xmlns="http://www.w3.org/2000/svg">
<path d="M154.999 72.0576V92.1326L145.074 93.0076L143.324 73.0826L154.999 72.0576Z" fill="#E6E7E8"/>
<path d="M154.999 92.1323V132.307L148.549 132.857L145.074 93.0073L154.999 92.1323Z" fill="#FF5023"/>
<path d="M128.626 134.608C128.886 137.563 128.265 140.53 126.839 143.132C125.413 145.734 123.248 147.856 120.617 149.227C117.986 150.599 115.007 151.159 112.057 150.837C109.108 150.516 106.32 149.326 104.046 147.42C101.772 145.513 100.115 142.976 99.2841 140.127C98.4529 137.279 98.4853 134.248 99.3769 131.418C100.269 128.588 101.979 126.086 104.293 124.229C106.607 122.371 109.42 121.241 112.376 120.983C116.337 120.636 120.274 121.876 123.321 124.431C126.368 126.986 128.276 130.647 128.626 134.608Z" fill="#787680"/>
<path d="M100.35 80.6072L98.0996 94.1322C98.0614 94.4984 98.1046 94.8685 98.2261 95.2161C98.3476 95.5637 98.5443 95.8801 98.8022 96.1428C99.0602 96.4056 99.373 96.6081 99.7182 96.7359C100.064 96.8637 100.433 96.9137 100.8 96.8822L145.075 93.0072L148.55 132.857L133.6 134.182L128.625 134.607C128.182 130.721 126.239 127.161 123.21 124.686C120.181 122.212 116.304 121.019 112.408 121.361C108.511 121.703 104.903 123.554 102.351 126.519C99.7998 129.484 98.5074 133.328 98.7496 137.232L93.7746 137.657L88.7996 138.082C87.4804 138.2 86.1683 137.79 85.1512 136.942C84.1341 136.093 83.4952 134.876 83.3746 133.557L82.9246 128.557L82.3496 121.957L92.4996 115.857L87.4996 110.857L92.4996 105.857L82.0996 100.657C82.4563 98.9939 82.8985 97.35 83.4246 95.7322L92.8246 72.9072C93.5181 71.2076 94.6667 69.732 96.1442 68.6426C97.6217 67.5532 99.3709 66.8922 101.2 66.7322L152.725 62.2322C153.484 62.1525 154.25 62.1863 155 62.3322V72.0572L143.325 73.0822L104.85 76.4572C103.746 76.5526 102.705 77.0119 101.89 77.7631C101.076 78.5142 100.534 79.5147 100.35 80.6072Z" fill="#FF6243"/>
<path d="M143.324 73.0823L145.074 93.0073L100.799 96.8823C100.433 96.9138 100.063 96.8638 99.718 96.736C99.3728 96.6081 99.06 96.4056 98.802 96.1429C98.5441 95.8802 98.3474 95.5638 98.2259 95.2162C98.1044 94.8686 98.0612 94.4985 98.0994 94.1323L100.349 80.6073C100.534 79.5147 101.076 78.5143 101.89 77.7631C102.705 77.012 103.746 76.5527 104.849 76.4573L143.324 73.0823Z" fill="#D1D3D4"/>
<path d="M92.5008 105.857L87.5008 110.857L92.5008 115.857L82.3508 121.957L81.4758 112.007C81.1577 108.213 81.368 104.394 82.1008 100.657L92.5008 105.857Z" fill="#FF9811"/>
<path d="M77.5984 110.358C77.9581 112.025 78.0174 113.744 77.7734 115.433L77.0734 120.383L64.6984 118.633C64.042 118.54 63.4495 118.19 63.051 117.66C62.6525 117.13 62.4807 116.464 62.5734 115.808L63.2734 110.858C63.3162 110.531 63.4238 110.217 63.5897 109.932C63.7556 109.648 63.9765 109.4 64.2396 109.202C64.5026 109.004 64.8025 108.86 65.1217 108.78C65.4409 108.699 65.7729 108.683 66.0984 108.733L77.5984 110.358Z" fill="#E6E7E8"/>
<path d="M46.6743 121.158C49.612 121.573 52.3607 122.849 54.5727 124.827C56.7848 126.804 58.3607 129.393 59.1013 132.266C59.8419 135.139 59.7139 138.167 58.7335 140.967C57.753 143.767 55.9642 146.214 53.5932 147.997C51.2221 149.781 48.3755 150.821 45.4132 150.987C42.4509 151.152 39.5061 150.436 36.9511 148.927C34.3961 147.419 32.3458 145.187 31.0594 142.514C29.773 139.84 29.3084 136.845 29.7243 133.908C30.2818 129.969 32.3806 126.414 35.5592 124.023C38.7378 121.632 42.7359 120.601 46.6743 121.158Z" fill="#787680"/>
<path d="M64.7008 118.632L77.0758 120.382L75.0008 135.232C74.8081 136.542 74.1068 137.723 73.049 138.518C71.9913 139.314 70.6624 139.66 69.3508 139.482L64.4008 138.782L59.4508 138.082C59.7249 136.131 59.6119 134.144 59.1183 132.236C58.6247 130.328 57.76 128.536 56.5737 126.962C55.3875 125.388 53.9028 124.063 52.2045 123.063C50.5062 122.062 48.6276 121.406 46.6758 121.132C44.724 120.858 42.7374 120.971 40.8292 121.465C38.9211 121.958 37.1289 122.823 35.555 124.009C33.981 125.196 32.6562 126.68 31.656 128.379C30.6558 130.077 29.9999 131.956 29.7258 133.907L24.7758 133.207L9.92578 131.132L15.5008 91.5073L55.1008 97.0823L65.0008 98.4823C68.0723 98.9129 70.9342 100.287 73.1913 102.414C75.4484 104.541 76.9892 107.317 77.6008 110.357L66.1008 108.732C65.7753 108.683 65.4433 108.699 65.1241 108.78C64.8049 108.86 64.505 109.004 64.2419 109.201C63.9789 109.399 63.7579 109.648 63.592 109.932C63.4261 110.216 63.3186 110.531 63.2758 110.857L62.5758 115.807C62.4831 116.464 62.6548 117.13 63.0533 117.66C63.4518 118.19 64.0444 118.539 64.7008 118.632Z" fill="#5AAAE7"/>
<path d="M54.9 96.757L55.1 97.082L15.5 91.507L18.275 71.707L40.225 74.807L41 74.332L54.9 96.757Z" fill="#E6E7E8"/>
<path d="M18.275 71.707L15.5 91.507L5 90.032V69.832L18.275 71.707Z" fill="#D1D3D4"/>
<path d="M5 90.0325L15.5 91.5075L9.925 131.132L5 130.432V90.0325Z" fill="#3D9AE2"/>
<path d="M41 74.3323L40.225 74.8073L18.275 71.7073L5 69.8323V59.7573L29.875 63.2573C31.3298 63.4565 32.7227 63.9742 33.9543 64.7737C35.1859 65.5732 36.2259 66.6346 37 67.8823L41 74.3323Z" fill="#3D9AE2"/>
<path d="M47.5 65.8574L40 58.3574H52.5V45.8574L65 58.3574L77.5 45.8574V58.3574H92.5L82.5 68.3574H50L47.5 65.8574Z" fill="#FF9811"/>
<path d="M64.4004 138.782L59.4504 138.082C59.7245 136.131 59.6115 134.144 59.1179 132.236C58.6242 130.328 57.7596 128.535 56.5733 126.962C55.3871 125.388 53.9024 124.063 52.2041 123.063C50.5058 122.062 48.6272 121.406 46.6754 121.132C44.7236 120.858 42.737 120.971 40.8289 121.465C38.9207 121.958 37.1286 122.823 35.5546 124.009C33.9806 125.196 32.6558 126.68 31.6556 128.379C30.6554 130.077 29.9995 131.956 29.7254 133.907L24.7754 133.207C25.4639 128.442 27.8424 124.083 31.4772 120.926C35.112 117.768 39.7607 116.023 44.5754 116.007C45.5121 116.012 46.4475 116.079 47.3754 116.207C52.6259 116.945 57.3687 119.737 60.5612 123.97C63.7537 128.204 65.1346 133.531 64.4004 138.782Z" fill="#3D9AE2"/>
<path d="M133.601 134.182L128.626 134.607C128.184 130.721 126.241 127.161 123.212 124.686C120.182 122.212 116.306 121.019 112.41 121.361C108.513 121.703 104.904 123.554 102.353 126.519C99.8016 129.484 98.5092 133.328 98.7513 137.232L93.7763 137.657C93.5396 135.041 93.8228 132.403 94.6094 129.896C95.396 127.39 96.6706 125.063 98.3598 123.051C100.049 121.039 102.12 119.381 104.452 118.172C106.785 116.963 109.333 116.227 111.951 116.007C112.526 115.957 113.126 115.932 113.701 115.932C118.696 115.948 123.504 117.828 127.185 121.204C130.866 124.58 133.154 129.208 133.601 134.182Z" fill="#FF5023"/>
<path d="M21.1543 104.92L21.8493 99.9702L31.7493 101.36L31.0543 106.31L21.1543 104.92Z" fill="black"/>
<path d="M41.7207 138.121L42.4159 133.17L47.3673 133.865L46.6721 138.816L41.7207 138.121Z" fill="black"/>
<path d="M155.217 74.5602L154.782 69.5802L104.63 73.9702C102.973 74.1136 101.411 74.8037 100.189 75.9319C98.9669 77.0601 98.1547 78.5625 97.8798 80.2027L95.6048 93.8577C95.5275 94.5561 95.5983 95.2629 95.8125 95.932C96.0267 96.6012 96.3796 97.2177 96.848 97.7414C97.3165 98.265 97.8901 98.6841 98.5313 98.9712C99.1726 99.2583 99.8672 99.407 100.57 99.4077C100.717 99.4085 100.864 99.4018 101.01 99.3877L142.8 95.7252L145.852 130.593L130.712 131.918C129.759 127.818 127.358 124.201 123.951 121.729C120.544 119.258 116.359 118.1 112.167 118.466C107.974 118.833 104.054 120.7 101.128 123.725C98.2013 126.751 96.4648 130.73 96.2373 134.933L88.5698 135.603C88.2433 135.633 87.914 135.597 87.6014 135.498C87.2888 135.399 86.9993 135.238 86.7498 135.025C86.4972 134.815 86.2887 134.557 86.1364 134.267C85.9841 133.976 85.8909 133.657 85.8623 133.33L85.6448 130.83L93.1148 130.175L92.6773 125.195L85.2073 125.858L84.9823 123.288L93.7873 117.998C94.1127 117.802 94.3893 117.535 94.5961 117.216C94.8028 116.898 94.9343 116.537 94.9806 116.16C95.0268 115.783 94.9867 115.4 94.8631 115.041C94.7395 114.682 94.5358 114.356 94.2673 114.088L91.0348 110.858L94.2673 107.625C94.5466 107.345 94.7555 107.003 94.8767 106.626C94.9979 106.25 95.028 105.85 94.9646 105.459C94.9011 105.069 94.7459 104.699 94.5117 104.38C94.2775 104.061 93.971 103.802 93.6173 103.625L84.9998 99.3152C85.2248 98.4327 85.4448 97.5477 85.7323 96.6852L95.1373 73.8577C95.658 72.5843 96.5201 71.4794 97.6286 70.6646C98.7371 69.8499 100.049 69.357 101.42 69.2402L152.952 64.7402C153.518 64.6938 154.087 64.7089 154.65 64.7852L155.35 59.8352C154.411 59.705 153.461 59.6799 152.517 59.7602L100.982 64.2602C98.6978 64.4555 96.5115 65.2774 94.6641 66.6356C92.8168 67.9937 91.3801 69.8354 90.5123 71.9577L81.0598 94.9577C79.8335 98.6357 79.1194 102.465 78.9373 106.338C78.3944 105.092 77.7099 103.914 76.8973 102.825C75.5185 100.986 73.7887 99.4379 71.8079 98.2711C69.8271 97.1044 67.6347 96.3419 65.3573 96.0277L61.3748 95.4677L74.6823 86.5977L78.2323 90.1477L81.7673 86.6127L76.7673 81.6127C76.3587 81.2039 75.8209 80.9493 75.2457 80.8924C74.6705 80.8354 74.0933 80.9795 73.6123 81.3002L55.6623 93.2652L39.1173 66.5627C38.1524 65.0049 36.8564 63.6786 35.3213 62.6779C33.7862 61.6773 32.0496 61.0268 30.2348 60.7727L5.34734 57.2727L4.65234 62.2252L29.5373 65.7252C30.6267 65.8767 31.6693 66.2664 32.591 66.8666C33.5126 67.4667 34.2907 68.2627 34.8698 69.1977L36.4498 71.7452L5.34734 67.3752L4.65234 72.3252L15.4548 73.8452L13.3673 88.6977L5.34734 87.5727L4.65234 92.5227L12.6723 93.6502L7.79984 128.31L5.34734 127.965L4.65234 132.915L27.1048 136.07C27.122 140.7 28.9734 145.135 32.2534 148.403C35.5334 151.67 39.9748 153.505 44.6048 153.505C48.3885 153.494 52.0671 152.26 55.0911 149.985C58.115 147.711 60.322 144.52 61.3823 140.888L69.0048 141.958C69.3551 142.007 69.7085 142.033 70.0623 142.033C71.8683 142.029 73.6124 141.374 74.9741 140.188C76.3359 139.001 77.2238 137.364 77.4748 135.575L79.6748 119.908L80.8898 133.765C81.0573 135.629 81.9143 137.364 83.2931 138.629C84.6719 139.895 86.4733 140.6 88.3448 140.608C88.5648 140.608 88.7848 140.608 89.0048 140.58L96.6748 139.908C97.5785 143.741 99.7477 147.159 102.832 149.608C105.916 152.057 109.736 153.396 113.675 153.408C114.185 153.408 114.697 153.385 115.212 153.34C119.404 152.977 123.323 151.112 126.249 148.09C129.176 145.068 130.914 141.091 131.142 136.89L155.212 134.783L154.777 129.803L150.827 130.148L147.777 95.2802L155.212 94.6302L154.777 89.6502L147.342 90.3202L146.037 75.3577L155.217 74.5602ZM75.2998 115.075L74.9498 117.55L65.0498 116.158L65.7448 111.208L75.3973 112.563C75.4483 113.401 75.4156 114.243 75.2998 115.075ZM20.4073 74.5402L39.8648 77.2752V77.2602L50.1673 93.8702L18.3173 89.3952L20.4073 74.5402ZM56.9673 137.743C56.6234 140.191 55.5611 142.483 53.9147 144.327C52.2684 146.172 50.1119 147.487 47.7182 148.106C45.3244 148.725 42.8009 148.62 40.4667 147.805C38.1325 146.989 36.0925 145.5 34.6048 143.525C33.2077 141.671 32.3545 139.464 32.1409 137.153C31.9273 134.841 32.3618 132.515 33.3956 130.437C34.4294 128.358 36.0217 126.608 37.994 125.383C39.9663 124.159 42.2407 123.507 44.5623 123.503C45.1528 123.503 45.7426 123.544 46.3273 123.625C49.6084 124.091 52.5709 125.838 54.5655 128.485C56.56 131.131 57.4238 134.46 56.9673 137.743ZM69.6923 137.008L62.0673 135.935C62.0567 132.69 61.1432 129.513 59.4291 126.757C57.715 124.002 55.268 121.779 52.3619 120.335C49.4559 118.892 46.2054 118.286 42.9744 118.584C39.7434 118.883 36.6593 120.076 34.0673 122.028C31.0493 124.297 28.8548 127.49 27.8173 131.12L12.7498 129.005L17.6223 94.3577L54.7498 99.5652L64.6523 100.958C66.5798 101.181 68.4227 101.875 70.0181 102.98C71.6135 104.084 72.9123 105.565 73.7998 107.29L66.4323 106.255C65.1199 106.07 63.7879 106.414 62.7289 107.211C61.6699 108.008 60.9707 109.193 60.7848 110.505L60.0898 115.455C59.9044 116.768 60.2479 118.101 61.0449 119.16C61.8419 120.22 63.0271 120.919 64.3398 121.105L74.2423 122.495L73.5473 127.448L66.1198 126.405L65.4248 131.355L72.8523 132.4L72.5023 134.875C72.4111 135.53 72.0642 136.122 71.5376 136.522C71.011 136.921 70.3475 137.096 69.6923 137.008ZM88.2798 106.543L85.7323 109.09C85.2637 109.559 85.0004 110.195 85.0004 110.858C85.0004 111.521 85.2637 112.156 85.7323 112.625L88.4698 115.358L84.4973 117.745L83.9748 111.775C83.7661 109.33 83.7954 106.87 84.0623 104.43L88.2798 106.543ZM126.145 134.825C126.36 137.288 125.841 139.76 124.652 141.927C123.463 144.095 121.657 145.861 119.464 147.003C117.271 148.145 114.789 148.61 112.331 148.341C109.874 148.072 107.551 147.08 105.657 145.49C103.763 143.901 102.383 141.786 101.692 139.412C101 137.039 101.028 134.513 101.771 132.155C102.515 129.797 103.941 127.713 105.87 126.166C107.798 124.619 110.142 123.678 112.605 123.463C112.975 123.43 113.355 123.413 113.715 123.413C116.838 123.418 119.846 124.593 122.146 126.705C124.447 128.817 125.873 131.714 126.145 134.825ZM142.367 90.7752L100.555 94.5377L102.817 81.0377C102.909 80.491 103.18 79.9902 103.587 79.6141C103.994 79.238 104.515 79.008 105.067 78.9602L141.067 75.8102L142.367 90.7752Z" fill="black"/>
<path d="M103.352 104.189L113.314 103.319L113.749 108.3L103.787 109.17L103.352 104.189Z" fill="black"/>
<path d="M110.912 133.666L115.893 133.231L116.328 138.212L111.347 138.647L110.912 133.666Z" fill="black"/>
<path d="M45.732 67.6246L49.267 64.0896L46.0345 60.8571H52.4995C53.1625 60.8571 53.7984 60.5937 54.2672 60.1249C54.7361 59.6561 54.9995 59.0202 54.9995 58.3571V51.8921L63.232 60.1246C63.7008 60.5933 64.3366 60.8566 64.9995 60.8566C65.6624 60.8566 66.2982 60.5933 66.767 60.1246L74.9995 51.8921V58.3571C74.9995 59.0202 75.2629 59.6561 75.7317 60.1249C76.2005 60.5937 76.8364 60.8571 77.4995 60.8571H86.4645L80.732 66.5896L84.267 70.1246L94.267 60.1246C94.6165 59.775 94.8545 59.3296 94.9509 58.8447C95.0473 58.3598 94.9978 57.8572 94.8087 57.4005C94.6195 56.9437 94.2991 56.5533 93.8881 56.2786C93.4771 56.0039 92.9938 55.8572 92.4995 55.8571H79.9995V45.8571C79.9994 45.3628 79.8527 44.8795 79.578 44.4685C79.3033 44.0575 78.9129 43.7371 78.4561 43.5479C77.9994 43.3588 77.4968 43.3093 77.0119 43.4057C76.527 43.5021 76.0816 43.7401 75.732 44.0896L64.9995 54.8221L54.267 44.0896C53.9173 43.7401 53.4719 43.5021 52.987 43.4057C52.5022 43.3093 51.9996 43.3588 51.5428 43.5479C51.0861 43.7371 50.6957 44.0575 50.421 44.4685C50.1463 44.8795 49.9996 45.3628 49.9995 45.8571V55.8571H39.9995C39.5051 55.8572 39.0218 56.0039 38.6108 56.2786C38.1998 56.5533 37.8794 56.9437 37.6903 57.4005C37.5011 57.8572 37.4516 58.3598 37.548 58.8447C37.6444 59.3296 37.8824 59.775 38.232 60.1246L45.732 67.6246Z" fill="black"/>
<path d="M60.7501 40.8574H65.7501C65.7512 40.3738 65.8554 39.8959 66.0559 39.4557C66.2564 39.0155 66.5484 38.6232 66.9126 38.3049C68.4113 36.756 69.2492 34.6852 69.2492 32.5299C69.2492 30.3747 68.4113 28.3038 66.9126 26.7549C66.5468 26.4362 66.2535 26.0429 66.0525 25.6013C65.8515 25.1597 65.7475 24.6801 65.7475 24.1949C65.7475 23.7097 65.8515 23.2302 66.0525 22.7886C66.2535 22.347 66.5468 21.9536 66.9126 21.6349C68.4195 20.0903 69.259 18.0153 69.2501 15.8574H64.2501C64.2495 16.3425 64.1452 16.8218 63.9443 17.2633C63.7434 17.7048 63.4504 18.0983 63.0851 18.4174C61.5873 19.9678 60.75 22.0392 60.75 24.1949C60.75 26.3506 61.5873 28.4221 63.0851 29.9724C63.4504 30.2906 63.7433 30.6834 63.944 31.1244C64.1447 31.5654 64.2485 32.0442 64.2485 32.5287C64.2485 33.0131 64.1447 33.492 63.944 33.9329C63.7433 34.3739 63.4504 34.7667 63.0851 35.0849C61.578 36.6272 60.7392 38.7011 60.7501 40.8574Z" fill="black"/>
<path d="M75.7501 35.8574H80.7501C80.7512 35.3738 80.8554 34.8959 81.0559 34.4557C81.2564 34.0155 81.5484 33.6232 81.9126 33.3049C83.4113 31.756 84.2492 29.6852 84.2492 27.5299C84.2492 25.3747 83.4113 23.3038 81.9126 21.7549C81.5468 21.4362 81.2535 21.0429 81.0525 20.6013C80.8515 20.1597 80.7475 19.6801 80.7475 19.1949C80.7475 18.7097 80.8515 18.2302 81.0525 17.7886C81.2535 17.347 81.5468 16.9536 81.9126 16.6349C83.4195 15.0903 84.259 13.0153 84.2501 10.8574H79.2501C79.2495 11.3425 79.1452 11.8218 78.9443 12.2633C78.7434 12.7048 78.4504 13.0983 78.0851 13.4174C76.5873 14.9678 75.75 17.0392 75.75 19.1949C75.75 21.3506 76.5873 23.4221 78.0851 24.9724C78.4504 25.2906 78.7433 25.6834 78.944 26.1244C79.1447 26.5654 79.2485 27.0442 79.2485 27.5287C79.2485 28.0131 79.1447 28.492 78.944 28.9329C78.7433 29.3739 78.4504 29.7667 78.0851 30.0849C76.578 31.6272 75.7392 33.7011 75.7501 35.8574Z" fill="black"/>
</svg>
