<svg width="80" height="70" viewBox="0 0 80 70" fill="none" xmlns="http://www.w3.org/2000/svg">
<path fill-rule="evenodd" clip-rule="evenodd" d="M29.8954 0.752874C28.9567 1.08546 27.901 2.08382 27.392 3.12033L26.9534 4.01336L26.9088 17.456L26.8639 30.8987L25.9992 31.3514C25.0206 31.8638 23.316 33.0917 22.4992 33.8727L21.9522 34.3956L18.3829 34.4427L14.8135 34.4896L14.4366 34.9281C13.9254 35.5226 13.9254 36.4258 14.4365 37.0205C14.8114 37.4568 14.8244 37.4593 16.9998 37.5097L19.1862 37.5603L18.4412 38.8381C18.0314 39.5409 17.5979 40.3269 17.4779 40.5848L17.2598 41.0537L13.1632 41.1318C9.15895 41.2082 9.05846 41.2179 8.71087 41.566C8.24873 42.0284 8.217 43.1343 8.65211 43.6151C9.13254 44.1461 9.89975 44.2558 13.138 44.2566L16.2018 44.2576L15.9984 45.2344C15.8867 45.7717 15.7521 46.5452 15.6993 46.9535L15.6033 47.6959H8.33H1.0565L0.525124 48.2273C-0.0434526 48.7959 -0.137225 49.2691 0.180508 49.9665C0.567634 50.816 0.621085 50.8217 8.40001 50.8217H15.5715L15.832 52.4236C15.9751 53.3046 16.0922 54.1136 16.0919 54.2209C16.0916 54.3713 15.2979 54.4163 12.646 54.4163C9.21193 54.4163 9.19927 54.4175 8.82324 54.7936C8.094 55.5228 8.15402 56.5379 8.96218 57.1418C9.36666 57.4441 9.6375 57.4667 13.3515 57.5105L17.31 57.5569L17.5099 58.0395C17.6199 58.3051 18.0422 59.0754 18.4486 59.7513L19.1872 60.9804H17.2408C14.6336 60.9804 14.0597 61.2767 14.0597 62.6231C14.0597 63.044 14.1788 63.3116 14.5165 63.6493L14.9733 64.1062H18.4146H21.856L22.7637 64.9023C26.4549 68.1395 31.187 69.8888 36.2526 69.8888C43.1007 69.8888 49.2223 66.7095 53.1798 61.0973C54.5749 59.1192 55.8183 56.4112 56.2658 54.3772L56.4635 53.4786H66.2565C77.6533 53.4786 77.1743 53.5322 78.602 52.0971C80.1464 50.5446 80.0236 52.8164 79.9764 26.6751L79.9351 3.85707L79.6033 3.13986C79.1692 2.20104 78.2852 1.3327 77.2942 0.871184L76.4968 0.5L53.5224 0.510784C33.6587 0.520161 30.4598 0.552825 29.8954 0.752874ZM44.6921 12.465V21.3073L45.149 21.7641C45.498 22.1131 45.7499 22.2209 46.2161 22.2209C46.7478 22.2209 47.247 21.9287 50.0867 19.9548C51.88 18.7084 53.4121 17.6886 53.4913 17.6886C53.5707 17.6886 55.0969 18.7084 56.8826 19.9548C59.7382 21.9477 60.2044 22.2209 60.7509 22.2209C61.4902 22.2209 62.105 21.701 62.2555 20.9489C62.3089 20.6815 62.3527 16.6736 62.3527 12.0427V3.62264H69.1633H75.9738L76.4307 4.07947L76.8875 4.5363V26.9877V49.4391L76.4307 49.896L75.9738 50.3528H66.4504H56.927L56.8343 48.282C56.5955 42.9385 54.6971 38.6435 50.8688 34.7854C47.862 31.7551 44.5426 29.9245 40.3942 29.0088C37.863 28.45 33.6357 28.56 31.1499 29.2492C30.6084 29.3994 30.1283 29.4854 30.0831 29.4402C29.92 29.277 29.9987 5.27867 30.1642 4.68212C30.4676 3.59029 30.2325 3.62264 37.8503 3.62264H44.6921V12.465ZM59.2269 10.6556C59.2269 14.5237 59.1951 17.6886 59.156 17.6886C59.1169 17.6886 58.0445 16.9601 56.7726 16.0697C55.5007 15.1792 54.2934 14.3634 54.0894 14.2566C53.3596 13.8745 53.1847 13.9689 48.2477 17.4102L47.8179 17.7098V10.6662V3.62264H53.5224H59.2269V10.6556ZM39.1625 31.993C42.9347 32.6411 46.0442 34.2831 48.7556 37.0583C51.0096 39.3654 52.4093 41.8448 53.3189 45.1415C53.609 46.1932 53.6573 46.7783 53.6582 49.2588C53.6592 51.9291 53.6265 52.2691 53.231 53.7075C51.5477 59.8289 46.7756 64.6052 40.7032 66.2468C39.2736 66.6333 38.9034 66.6685 36.2526 66.6685C33.601 66.6685 33.2317 66.6335 31.7984 66.2462C29.9339 65.7427 27.1912 64.4211 25.7733 63.3433C22.628 60.9523 20.2417 57.4016 19.2699 53.667C18.7408 51.6339 18.6041 48.3984 18.9607 46.3532C20.6258 36.8072 29.6885 30.3651 39.1625 31.993ZM5.8322 34.5664C4.96121 34.9179 4.71099 36.2515 5.37178 37.0205C5.74187 37.4512 5.78328 37.46 7.69969 37.5104L9.65094 37.562L10.1717 37.0968C10.6054 36.7092 10.6924 36.5218 10.6924 35.9743C10.6924 35.4304 10.6049 35.2391 10.1854 34.8643C9.6883 34.42 9.64532 34.4116 7.92287 34.4213C6.95716 34.4267 6.01646 34.4921 5.8322 34.5664ZM34.4509 35.033C29.536 35.7286 25.4331 38.7054 23.3393 43.0948C22.3181 45.2355 21.9685 46.861 21.9797 49.4151C21.9907 51.8901 22.2936 53.2618 23.2885 55.3428C24.1001 57.0404 25.0128 58.3047 26.3499 59.5833C27.6719 60.8476 28.5313 61.4404 30.195 62.2355C32.3248 63.2538 33.621 63.5309 36.2526 63.5309C38.8842 63.5309 40.1804 63.2538 42.3102 62.2355C43.9739 61.4404 44.8333 60.8476 46.1553 59.5833C48.1422 57.6833 49.5244 55.2901 50.1886 52.5998C50.6678 50.6583 50.6664 47.8561 50.1854 45.8986C48.8999 40.6689 44.6582 36.4825 39.4434 35.2965C38.0698 34.984 35.6857 34.8582 34.4509 35.033ZM39.0245 38.4088C40.297 38.7343 42.2689 39.7265 43.3234 40.5715C45.0211 41.9322 46.3318 43.9442 47.0523 46.296C47.4785 47.6868 47.5566 50.3759 47.2112 51.7594C46.1158 56.1459 42.7907 59.3575 38.407 60.2629C33.8103 61.2125 29.0069 59.0429 26.578 54.9205C22.9439 48.7521 26.007 40.8291 32.898 38.5734C34.6906 37.9865 37.1192 37.9213 39.0245 38.4088ZM35.2064 41.6651L34.7679 42.042L34.7205 45.7545C34.6872 48.3729 34.7283 49.5997 34.8598 49.9172C35.1887 50.7115 35.6431 50.8217 38.5868 50.8217H41.2488L41.7556 50.3687C42.4396 49.7578 42.4722 48.8435 41.8332 48.2038C41.4224 47.7926 41.3262 47.7717 39.6097 47.7215L37.8155 47.669V45.0959C37.8155 42.3768 37.6926 41.7968 37.0426 41.4491C36.5083 41.1631 35.6765 41.2609 35.2064 41.6651ZM5.74124 61.2241C4.84915 61.7082 4.7063 62.9038 5.45179 63.6493C5.90628 64.1038 5.91863 64.1062 7.79362 64.1062C9.63157 64.1062 9.69048 64.0954 10.1504 63.6764C10.7722 63.1098 10.8833 62.459 10.471 61.797C10.2958 61.5155 9.97196 61.2166 9.75144 61.1328C9.10878 60.8885 6.23933 60.9537 5.74124 61.2241Z" fill="#005BCB"/>
</svg>
