<svg width="329" height="486" viewBox="0 0 329 486" fill="none" xmlns="http://www.w3.org/2000/svg">
<g filter="url(#filter0_di_144_4233)">
<path fill-rule="evenodd" clip-rule="evenodd" d="M283.44 262.102L285.375 352.056L206.723 391.406C205.709 399.057 202.964 406.957 198.528 414.496C184.11 438.999 157.902 449.584 139.293 438.631C120.684 427.678 117.212 399.624 131.629 375.121C146.047 350.619 172.019 339.895 190.864 350.987C197.459 354.869 202.197 360.829 204.884 368.121L263.136 338.649L261.599 267.961L282.83 262.06L283.44 262.102ZM150.713 386.351C141.979 401.194 143.792 415.9 150.623 419.921C157.454 423.942 171.189 418.386 179.922 403.543C188.656 388.7 186.844 373.994 180.012 369.973C173.181 365.953 159.308 371.744 150.713 386.351Z" fill="#909090" fill-opacity="0.06" shape-rendering="crispEdges"/>
<path d="M-20.6279 369.247L-88.7041 329.179L-87.5263 263.577C-79.5027 264.494 -71.5478 262.832 -65.1167 258.37C-47.1264 246.12 -45.2081 218.067 -61.1122 194.432C-77.0163 170.798 -103.719 161.742 -121.709 173.992C-139.7 186.241 -141.618 214.295 -125.714 237.929C-122.721 242.545 -119.078 246.593 -115.392 250.031L-116.659 343.81L-34.2136 392.336L-20.6279 369.247ZM-107.488 225.818C-116.936 211.693 -116.171 196.918 -109.601 192.22C-102.796 187.662 -88.7863 192.418 -79.3381 206.543C-69.8899 220.669 -70.6552 235.444 -77.2249 240.141C-83.7946 244.839 -97.8041 240.082 -107.488 225.818Z" fill="#909090" fill-opacity="0.06" shape-rendering="crispEdges"/>
<path d="M149.252 65.4426C145.037 71.5266 142.708 78.7197 143.053 86.2183C144.129 108.104 167.56 123.798 195.955 122.431C224.489 120.828 245.71 102.549 244.495 80.8993C243.418 59.0135 219.988 43.3196 191.592 44.6869C185.314 45.1155 179.605 46.1957 174.089 48.0243L90.9921 0.0670709L11.1188 44.7255L28.5614 67.3625L91.346 30.7263L149.252 65.4426ZM222.751 81.741C223.054 89.8494 211.744 99.3696 194.643 100.406C177.542 101.443 165.377 93.0137 164.699 85.0022C164.396 76.8938 175.706 67.3737 192.807 66.3371C209.908 65.3004 222.309 73.8683 222.751 81.741Z" fill="#909090" fill-opacity="0.06" shape-rendering="crispEdges"/>
<path d="M77.5485 470.806C96.2038 459.582 99.106 431.474 84.2275 407.174C80.4733 401.158 76.0675 395.71 71.2042 391.579L73.9791 243.495L-2.41041 195.996L-12.5394 190.034L-9.39937 217.575L50.7783 254.898L49.3109 380.279C40.6223 378.337 31.7252 379.444 24.3101 383.961C5.65488 395.185 2.75266 423.293 17.6311 447.593C32.7452 472.032 59.1288 482.168 77.5485 470.806ZM36.522 436.508C27.5866 422.05 29.1002 407.081 36.0024 402.897C42.9046 398.712 56.8724 404.078 65.6691 418.772C74.6046 433.23 73.0909 448.199 66.1887 452.383C59.4252 456.332 45.4574 450.966 36.522 436.508Z" fill="#909090" fill-opacity="0.06" shape-rendering="crispEdges"/>
<path d="M243.096 147.957C238.84 154.65 235.9 161.802 234.083 168.662L102.915 244.983L101.984 323.1L102.05 336.462L127.29 316.743L128.452 260.331L236.682 198.74C239.259 204.063 243 208.485 248.043 211.771C266.472 223.569 292.832 214.342 308.192 190.394C323.926 166.349 321.673 138.379 303.244 126.58C284.815 114.782 258.691 124.147 243.096 147.957ZM290.137 178.499C280.836 192.69 267.004 197.872 260.076 193.477C253.383 189.221 252.319 174.321 261.524 159.755C270.826 145.563 284.657 140.382 291.586 144.777C298.139 149.269 299.203 164.169 290.137 178.499Z" fill="#909090" fill-opacity="0.06" shape-rendering="crispEdges"/>
<path d="M-40.3277 141.325L89.9358 217.995L158.514 179.059L178.444 168.902L147.058 154.87L91.0234 185.964L-13.9385 124.503C-9.48882 118.557 -7.06222 111.738 -7.17153 104.378C-7.40257 82.6731 -30.1401 65.8011 -58.4522 65.9487C-86.9028 66.332 -109.162 83.6814 -108.696 105.525C-108.229 127.37 -85.7273 144.103 -57.4153 143.955C-51.5117 143.624 -45.5664 142.682 -40.3277 141.325ZM-86.8555 105.058C-86.9231 97.0882 -75.1418 87.8453 -58.2211 87.6542C-41.3003 87.463 -29.0379 96.2664 -29.1089 104.472C-29.1799 112.677 -40.8225 121.684 -57.7432 121.876C-74.6639 122.067 -86.7878 113.028 -86.8555 105.058Z" fill="#909090" fill-opacity="0.06" shape-rendering="crispEdges"/>
<path d="M206.499 390.959L206.262 391.078L206.227 391.341C205.223 398.92 202.502 406.757 198.097 414.243C183.752 438.622 157.818 448.954 139.547 438.2C121.276 427.446 117.715 399.754 132.06 375.375C146.406 350.994 172.105 340.526 190.61 351.418C197.098 355.236 201.765 361.101 204.415 368.293L204.609 368.82L205.11 368.567L263.362 339.096L263.643 338.953L263.636 338.639L262.107 268.339L282.882 262.565L282.95 262.57L284.869 351.751L206.499 390.959ZM-88.9577 329.609L-21.3124 369.424L-34.391 391.651L-116.155 343.527L-114.892 250.038L-114.889 249.817L-115.051 249.665C-118.715 246.248 -122.329 242.231 -125.294 237.657L-125.299 237.65C-141.12 214.139 -139.099 186.438 -121.428 174.405C-103.765 162.379 -77.3525 171.194 -61.527 194.712C-45.7063 218.222 -47.7267 245.924 -65.3981 257.956L-65.4017 257.959C-71.7195 262.342 -79.549 263.985 -87.4696 263.081L-88.0163 263.018L-88.0262 263.568L-89.204 329.17L-89.2092 329.461L-88.9577 329.609ZM-107.903 226.096L-107.901 226.099C-103.013 233.3 -97.0188 238.122 -91.3865 240.55C-85.7766 242.967 -80.4232 243.043 -76.934 240.548C-73.4568 238.062 -71.6042 232.991 -71.775 226.864C-71.9463 220.713 -74.1518 213.398 -78.9225 206.265C-83.694 199.132 -89.6305 194.343 -95.2628 191.916C-100.875 189.498 -106.277 189.392 -109.879 191.805L-109.886 191.809L-109.892 191.814C-113.369 194.3 -115.222 199.37 -115.051 205.498C-114.88 211.649 -112.674 218.964 -107.903 226.096ZM149.663 65.7273L149.967 65.2883L149.509 65.0137L91.6031 30.2975L91.3494 30.1454L91.094 30.2945L28.6891 66.7091L11.8684 44.8792L90.9882 0.642106L173.839 48.4574L174.033 48.5695L174.246 48.4989C179.717 46.6852 185.383 45.6124 191.621 45.1861C219.879 43.8274 242.939 59.4368 243.995 80.9238L243.995 80.9273C245.188 102.185 224.319 120.336 195.928 121.931C167.67 123.291 144.61 107.682 143.552 86.1951C143.213 78.8172 145.504 71.7307 149.663 65.7273ZM223.251 81.7224L223.251 81.7224L223.25 81.713C223.016 77.5311 219.633 73.2974 214.273 70.2629C208.888 67.2147 201.415 65.3143 192.777 65.838C184.144 66.3613 176.948 69.0269 171.936 72.611C166.942 76.1819 164.039 80.728 164.2 85.0209L164.2 85.0326L164.201 85.0444C164.559 89.2819 167.93 93.512 173.266 96.5324C178.622 99.5638 186.037 101.429 194.673 100.905C203.306 100.382 210.502 97.7163 215.515 94.1323C220.509 90.5614 223.411 86.0152 223.251 81.7224ZM77.2907 470.377L77.286 470.38C59.2033 481.535 33.0988 471.651 18.0575 447.332C3.25263 423.152 6.25296 395.409 24.5679 384.39L24.5703 384.388C31.8609 379.947 40.6227 378.849 49.2018 380.767L49.8036 380.901L49.8108 380.285L51.2783 254.904L51.2816 254.622L51.0418 254.473L-8.93003 217.278L-11.929 190.974L-2.67442 196.421L-2.66402 196.427L73.4739 243.769L70.7043 391.569L70.6999 391.806L70.8805 391.96C75.6939 396.049 80.0671 401.452 83.8016 407.436C98.606 431.615 95.6055 459.358 77.2907 470.377ZM66.4409 452.815L66.448 452.811C70.1095 450.591 72.2421 445.592 72.3679 439.44C72.4943 433.263 70.6085 425.814 66.0968 418.513C61.6539 411.093 55.8938 406.007 50.3442 403.305C44.816 400.614 39.4013 400.251 35.7432 402.469C32.0816 404.689 29.9491 409.688 29.8232 415.84C29.6968 422.018 31.5833 429.468 36.0967 436.771C40.6097 444.073 46.4042 449.098 51.951 451.798C57.4731 454.486 62.8506 454.911 66.4409 452.815ZM127.952 260.321L126.795 316.495L102.545 335.44L102.484 323.106L102.484 323.098L103.411 245.273L234.335 169.095L234.514 168.991L234.567 168.79C236.372 161.975 239.291 154.873 243.516 148.227C259.033 124.54 284.874 115.413 302.974 127.001C321.07 138.587 323.428 166.196 307.773 190.121L307.771 190.124C292.493 213.945 266.417 222.94 248.313 211.35C243.352 208.117 239.672 203.768 237.133 198.522L236.9 198.041L236.435 198.305L128.205 259.896L127.958 260.037L127.952 260.321ZM290.555 178.773L290.56 178.766C295.138 171.53 297.17 164.132 297.219 157.953C297.268 151.799 295.343 146.746 291.868 144.365L291.861 144.36L291.853 144.355C288.186 142.028 282.798 142.287 277.236 144.842C271.654 147.405 265.802 152.316 261.106 159.481L261.102 159.488C256.455 166.84 254.387 174.297 254.339 180.478C254.29 186.632 256.25 191.636 259.808 193.899L259.808 193.899C263.476 196.226 268.863 195.967 274.425 193.412C280.007 190.849 285.859 185.938 290.555 178.773ZM-40.0741 140.894L-40.2527 140.789L-40.4532 140.841C-45.6555 142.189 -51.5633 143.125 -57.4304 143.455C-85.5929 143.597 -107.738 126.969 -108.196 105.515C-108.654 84.0696 -86.7578 66.831 -58.4477 66.4487C-30.2756 66.3025 -7.89835 83.0725 -7.6715 104.384L-7.67147 104.386C-7.56395 111.625 -9.94887 118.338 -14.3388 124.203L-14.6742 124.651L-14.1911 124.934L90.7708 186.395L91.0168 186.539L91.266 186.401L147.082 155.429L177.285 168.932L158.287 178.613L158.277 178.618L158.267 178.624L89.9403 217.417L-40.0741 140.894ZM150.282 386.098C145.873 393.592 144.112 401.072 144.332 407.212C144.55 413.327 146.742 418.217 150.369 420.352C153.996 422.487 159.336 422.03 164.786 419.251C170.26 416.462 175.944 411.291 180.353 403.797C184.763 396.303 186.523 388.822 186.304 382.682C186.086 376.567 183.893 371.677 180.266 369.542C176.636 367.406 171.259 367.926 165.796 370.732C160.307 373.55 154.623 378.72 150.282 386.098ZM-58.2267 87.1542C-66.774 87.2508 -74.0449 89.6333 -79.1841 93.0217C-84.3014 96.3956 -87.3913 100.833 -87.3554 105.062C-87.3195 109.295 -84.1039 113.678 -78.8849 116.951C-73.6423 120.238 -66.2854 122.472 -57.7376 122.376C-49.1928 122.279 -41.9565 119.957 -36.8332 116.597C-31.7275 113.249 -28.6465 108.814 -28.6089 104.476C-28.5712 100.121 -31.7909 95.7334 -37.0298 92.4892C-42.2908 89.2313 -49.6819 87.0577 -58.2267 87.1542Z" stroke="url(#paint0_linear_144_4233)" stroke-opacity="0.06" shape-rendering="crispEdges"/>
</g>
<defs>
<filter id="filter0_di_144_4233" x="-136.519" y="0.0671387" width="465.189" height="485.385" filterUnits="userSpaceOnUse" color-interpolation-filters="sRGB">
<feFlood flood-opacity="0" result="BackgroundImageFix"/>
<feColorMatrix in="SourceAlpha" type="matrix" values="0 0 0 0 0 0 0 0 0 0 0 0 0 0 0 0 0 0 127 0" result="hardAlpha"/>
<feOffset dx="5" dy="5"/>
<feGaussianBlur stdDeviation="2.5"/>
<feComposite in2="hardAlpha" operator="out"/>
<feColorMatrix type="matrix" values="0 0 0 0 0 0 0 0 0 0 0 0 0 0 0 0 0 0 0.2 0"/>
<feBlend mode="normal" in2="BackgroundImageFix" result="effect1_dropShadow_144_4233"/>
<feBlend mode="normal" in="SourceGraphic" in2="effect1_dropShadow_144_4233" result="shape"/>
<feColorMatrix in="SourceAlpha" type="matrix" values="0 0 0 0 0 0 0 0 0 0 0 0 0 0 0 0 0 0 127 0" result="hardAlpha"/>
<feOffset dx="6" dy="6"/>
<feGaussianBlur stdDeviation="10"/>
<feComposite in2="hardAlpha" operator="arithmetic" k2="-1" k3="1"/>
<feColorMatrix type="matrix" values="0 0 0 0 0.0705882 0 0 0 0 0.0705882 0 0 0 0 0.0705882 0 0 0 0.3 0"/>
<feBlend mode="normal" in2="shape" result="effect2_innerShadow_144_4233"/>
</filter>
<linearGradient id="paint0_linear_144_4233" x1="75.5507" y1="428.112" x2="108.599" y2="1.867" gradientUnits="userSpaceOnUse">
<stop stop-color="white" stop-opacity="0"/>
<stop offset="1" stop-color="white"/>
</linearGradient>
</defs>
</svg>
