<svg width="25" height="26" viewBox="0 0 25 26" fill="none" xmlns="http://www.w3.org/2000/svg">
<path d="M15.4463 8.58025L9.55467 14.473C9.45518 14.5691 9.37582 14.684 9.32123 14.8111C9.26664 14.9382 9.2379 15.0749 9.2367 15.2132C9.2355 15.3515 9.26185 15.4886 9.31423 15.6167C9.36661 15.7447 9.44395 15.861 9.54176 15.9588C9.63956 16.0566 9.75587 16.1339 9.88388 16.1863C10.0119 16.2387 10.1491 16.265 10.2874 16.2638C10.4257 16.2626 10.5624 16.2339 10.6895 16.1793C10.8166 16.1247 10.9315 16.0454 11.0276 15.9459L16.9203 10.0542C17.5064 9.46811 17.8357 8.67319 17.8357 7.84432C17.8357 7.01544 17.5064 6.22052 16.9203 5.63442C16.3342 5.04832 15.5393 4.71905 14.7104 4.71905C13.8815 4.71905 13.0866 5.04832 12.5005 5.63442L6.60779 11.5271C6.11412 12.0085 5.72095 12.5831 5.45108 13.2176C5.18122 13.8522 5.04003 14.534 5.03571 15.2235C5.03139 15.913 5.16402 16.5965 5.42592 17.2343C5.68781 17.8722 6.07375 18.4517 6.56135 18.9392C7.04895 19.4267 7.62851 19.8126 8.26639 20.0744C8.90428 20.3362 9.5878 20.4687 10.2773 20.4643C10.9668 20.4599 11.6486 20.3186 12.2831 20.0487C12.9175 19.7787 13.4921 19.3855 13.9734 18.8917L19.8661 13L21.339 14.473L15.4463 20.3657C14.7692 21.0428 13.9653 21.5799 13.0806 21.9464C12.1959 22.3128 11.2477 22.5015 10.2901 22.5015C9.33248 22.5015 8.38425 22.3128 7.49954 21.9464C6.61483 21.5799 5.81096 21.0428 5.13384 20.3657C4.45671 19.6885 3.91958 18.8847 3.55312 18C3.18666 17.1153 2.99805 16.167 2.99805 15.2094C2.99805 14.2518 3.18666 13.3036 3.55312 12.4189C3.91958 11.5342 4.45671 10.7303 5.13384 10.0532L11.0276 4.1615C12.0099 3.21276 13.3255 2.68779 14.6911 2.69966C16.0567 2.71153 17.3631 3.25928 18.3287 4.22495C19.2944 5.19062 19.8421 6.49693 19.854 7.86254C19.8659 9.22815 19.3409 10.5438 18.3922 11.5261L12.5005 17.4209C12.2102 17.7111 11.8656 17.9413 11.4864 18.0983C11.1072 18.2553 10.7007 18.3361 10.2902 18.3361C9.87977 18.336 9.47334 18.2552 9.09414 18.098C8.71494 17.9409 8.3704 17.7106 8.08019 17.4204C7.78998 17.1301 7.55979 16.7855 7.40276 16.4062C7.24572 16.027 7.16493 15.6206 7.16497 15.2101C7.16502 14.7996 7.24592 14.3932 7.40304 14.014C7.56016 13.6348 7.79043 13.2903 8.08071 13L13.9734 7.10734L15.4463 8.58025Z" fill="#005BCB"/>
</svg>
