<svg width="98" height="49" viewBox="0 0 98 49" fill="none" xmlns="http://www.w3.org/2000/svg">
<g style="mix-blend-mode:luminosity" opacity="0.5">
<g clip-path="url(#clip0_144_4264)">
<path d="M11.9799 0.00415039H12.8449C15.8482 0.0692187 18.8025 1.27298 20.9243 3.40397C20.1409 4.20106 19.3411 4.96561 18.574 5.7627C17.3825 4.68907 15.9461 3.85945 14.3792 3.56664C12.0615 3.07863 9.56421 3.51784 7.62189 4.83548C5.50002 6.21818 4.06369 8.56064 3.75357 11.0658C3.4108 13.5384 4.11265 16.1411 5.72853 18.0606C7.27913 19.9313 9.64582 21.1026 12.0941 21.1839C14.3792 21.314 16.7622 20.6146 18.4271 19.0204C19.7328 17.8979 20.3368 16.1899 20.5326 14.5307C17.8232 14.5307 15.1137 14.5469 12.4042 14.5307V11.1796H23.8133C24.4009 14.7747 23.5522 18.8252 20.8101 21.3954C18.982 23.2173 16.4521 24.2909 13.8732 24.5024C11.376 24.7464 8.79708 24.2746 6.57728 23.0709C3.91679 21.6556 1.79492 19.2644 0.750312 16.4502C-0.22901 13.8637 -0.245332 10.9356 0.668702 8.3329C1.50113 5.95791 3.10069 3.85945 5.15726 2.39541C7.13223 0.947642 9.53157 0.150554 11.9799 0.00415039Z" fill="#3780FF"/>
<path d="M77.4316 0.848145H80.9246V24.0775C79.7657 24.0775 78.5905 24.0938 77.4316 24.0613C77.448 16.3344 77.4316 8.59128 77.4316 0.848145Z" fill="#38B137"/>
<path d="M31.5826 8.90114C33.7371 8.49446 36.0712 8.94994 37.8503 10.235C39.4661 11.3737 40.5924 13.1631 40.9351 15.1152C41.3758 17.3763 40.8209 19.8489 39.3519 21.6383C37.7687 23.6391 35.1734 24.7127 32.6435 24.5501C30.3258 24.4199 28.0734 23.265 26.7023 21.378C25.1517 19.2958 24.7763 16.4328 25.625 13.9927C26.4738 11.3737 28.8731 9.37288 31.5826 8.90114ZM32.0723 11.9919C31.1909 12.2196 30.3748 12.7239 29.7872 13.4397C28.2039 15.3266 28.3019 18.4011 30.0483 20.158C31.044 21.1665 32.5456 21.6383 33.933 21.3617C35.2224 21.134 36.3486 20.2718 36.9689 19.1331C38.0461 17.1973 37.736 14.5295 36.0875 13.0167C35.0265 12.0407 33.476 11.634 32.0723 11.9919Z" fill="#FA3913"/>
<path d="M48.8861 8.90014C51.3507 8.42839 54.0438 9.11161 55.8882 10.8359C58.8915 13.52 59.2179 18.5465 56.6553 21.6373C55.1047 23.5893 52.5912 24.6629 50.1102 24.5491C47.7435 24.484 45.4095 23.3128 44.0058 21.377C42.4225 19.246 42.0798 16.3179 42.9775 13.8291C43.8752 11.2914 46.2256 9.35562 48.8861 8.90014ZM49.3757 11.9909C48.4943 12.2186 47.6782 12.7229 47.0906 13.4224C45.5237 15.2768 45.589 18.3025 47.2702 20.0756C48.2658 21.133 49.8164 21.6535 51.2527 21.3607C52.5259 21.1167 53.6684 20.2708 54.2886 19.1321C55.3496 17.1801 55.0395 14.5123 53.3746 12.9994C52.3137 12.0234 50.7631 11.633 49.3757 11.9909Z" fill="#FCBD06"/>
<path d="M63.5571 9.84413C65.4342 8.6729 67.9314 8.34756 69.9554 9.35612C70.5919 9.63266 71.1142 10.1044 71.6202 10.5762C71.6365 10.1369 71.6202 9.68146 71.6365 9.22598C72.7301 9.24225 73.8237 9.22598 74.9336 9.24225V23.5898C74.9173 25.7533 74.3623 28.047 72.7954 29.6249C71.0816 31.3655 68.4537 31.9023 66.087 31.5444C63.5571 31.1703 61.3537 29.3321 60.3743 27.0059C61.3537 26.5342 62.3819 26.16 63.3939 25.7208C63.9652 27.0547 65.124 28.1934 66.5767 28.4537C68.0294 28.714 69.7105 28.3561 70.6572 27.1523C71.6692 25.916 71.6692 24.2242 71.6202 22.7114C70.8694 23.4434 70.0043 24.0941 68.9597 24.3381C66.691 24.9725 64.1937 24.1917 62.4472 22.6626C60.6845 21.1335 59.6398 18.7748 59.7378 16.4323C59.7867 13.7808 61.2884 11.2268 63.5571 9.84413ZM66.9358 11.9263C65.9402 12.089 65.0098 12.6421 64.3732 13.4066C62.839 15.2285 62.839 18.1403 64.3896 19.9297C65.2709 20.9871 66.691 21.5727 68.062 21.4263C69.3515 21.2962 70.543 20.4828 71.1795 19.3604C72.2568 17.4571 72.0772 14.8707 70.6246 13.2114C69.7269 12.1866 68.2905 11.6823 66.9358 11.9263Z" fill="#3780FF"/>
<path d="M85.1183 10.6741C87.077 8.85223 90.0966 8.23408 92.6102 9.19384C94.9932 10.0885 96.5111 12.3497 97.2783 14.6758C93.7364 16.1399 90.2108 17.5877 86.6689 19.0517C87.1586 19.9789 87.9094 20.8248 88.9214 21.1664C90.3414 21.6707 92.0389 21.4918 93.2304 20.5483C93.7037 20.1904 94.0791 19.7186 94.4382 19.2632C95.3359 19.865 96.2336 20.4507 97.1314 21.0525C95.8582 22.9558 93.72 24.2897 91.4186 24.5012C88.8724 24.8102 86.1629 23.8342 84.5144 21.8496C81.8049 18.7263 82.0661 13.4883 85.1183 10.6741ZM86.8648 13.6836C86.3098 14.4806 86.0813 15.4567 86.0976 16.4164C88.4643 15.4404 90.831 14.4644 93.1977 13.4721C92.806 12.5611 91.8593 12.008 90.8963 11.8616C89.3457 11.5851 87.7298 12.4147 86.8648 13.6836Z" fill="#FA3913"/>
</g>
<path d="M14.6524 34.9346L16.6447 39.2246L21.3404 39.7937L17.876 43.0142L18.7858 47.656L14.6524 45.3564L10.5189 47.656L11.4287 43.0142L7.9643 39.7937L12.66 39.2246L14.6524 34.9346Z" fill="#FCBD06"/>
<path d="M48.6348 34.9346L50.6271 39.2246L55.3228 39.7937L51.8584 43.0142L52.7682 47.656L48.6348 45.3564L44.5013 47.656L45.4111 43.0142L41.9467 39.7937L46.6425 39.2246L48.6348 34.9346Z" fill="#FCBD06"/>
<path d="M31.6397 34.9346L33.632 39.2246L38.3277 39.7937L34.8633 43.0142L35.7731 47.656L31.6397 45.3564L27.5062 47.656L28.416 43.0142L24.9516 39.7937L29.6473 39.2246L31.6397 34.9346Z" fill="#FCBD06"/>
<path d="M65.6367 34.9346L67.6291 39.2246L72.3248 39.7937L68.8604 43.0142L69.7702 47.656L65.6367 45.3564L61.5033 47.656L62.4131 43.0142L58.9487 39.7937L63.6444 39.2246L65.6367 34.9346Z" fill="#FCBD06"/>
<path d="M82.6309 34.9346L84.6232 39.2246L89.3189 39.7937L85.8545 43.0142L86.7643 47.656L82.6309 45.3564L78.4974 47.656L79.4072 43.0142L75.9428 39.7937L80.6386 39.2246L82.6309 34.9346Z" fill="#FCBD06"/>
</g>
<defs>
<clipPath id="clip0_144_4264">
<rect width="97.2793" height="31.6451" fill="white"/>
</clipPath>
</defs>
</svg>
