<svg width="22" height="22" viewBox="0 0 22 22" fill="none" xmlns="http://www.w3.org/2000/svg">
<path d="M21.5 16.1567V20.282C21.5001 20.5774 21.3882 20.8618 21.1869 21.0779C20.9855 21.294 20.7096 21.4257 20.415 21.4463C19.9052 21.4813 19.4887 21.5 19.1667 21.5C8.85683 21.5 0.5 13.1432 0.5 2.83333C0.5 2.51133 0.5175 2.09483 0.553667 1.585C0.574343 1.29035 0.706011 1.01451 0.922104 0.813144C1.1382 0.611775 1.42263 0.499866 1.718 0.5H5.84333C5.98805 0.499854 6.12765 0.553502 6.23502 0.650524C6.34239 0.747546 6.40986 0.881013 6.42433 1.025C6.45117 1.29333 6.47567 1.50683 6.499 1.669C6.73086 3.28708 7.206 4.8608 7.90833 6.33683C8.01917 6.57017 7.94683 6.849 7.73683 6.99833L5.21917 8.79733C6.75853 12.3842 9.61697 15.2426 13.2038 16.782L15.0005 14.269C15.0739 14.1663 15.1811 14.0927 15.3032 14.0609C15.4254 14.0292 15.5549 14.0413 15.669 14.0952C17.1449 14.7962 18.7182 15.2701 20.3357 15.501C20.4978 15.5243 20.7113 15.55 20.9773 15.5757C21.1211 15.5904 21.2543 15.658 21.3511 15.7653C21.4479 15.8727 21.5013 16.0121 21.5012 16.1567H21.5Z" fill="#005BCB"/>
</svg>
