<svg width="80" height="81" viewBox="0 0 80 81" fill="none" xmlns="http://www.w3.org/2000/svg">
<path fill-rule="evenodd" clip-rule="evenodd" d="M30.5082 0.696008C30.1461 0.814738 29.5485 1.09094 29.1803 1.30981C28.8121 1.52868 23.3711 6.86214 17.0894 13.1618C8.00441 22.2729 5.59404 24.7734 5.30612 25.386C4.79371 26.4761 4.70903 28.2244 5.11131 29.4101L5.41282 30.2986L2.93012 32.7689C1.56457 34.1275 0.346815 35.4289 0.223712 35.6609C0.0326506 36.0212 0 39.2339 0 57.642C0 74.0244 0.0448361 79.2997 0.186687 79.6109C0.593023 80.5029 -0.150442 80.4657 17.2627 80.4657C34.6758 80.4657 33.9323 80.5029 34.3386 79.6109C34.5747 79.0929 34.5747 78.7142 34.3386 78.1961C33.9332 77.3064 34.5919 77.3413 18.2078 77.3413H3.12446V58.7913V40.2414L6.05365 43.1523C7.66478 44.7534 9.1364 46.1412 9.32402 46.2362C9.56992 46.3608 18.1374 46.4091 39.9931 46.4091C61.8489 46.4091 70.4163 46.3608 70.6622 46.2362C70.8499 46.1412 72.3216 44.7534 73.9326 43.1523L76.8618 40.2414V58.7913V77.3413H61.7784C45.3944 77.3413 46.053 77.3064 45.6476 78.1961C45.2824 78.9977 45.5458 79.8713 46.2647 80.2431C46.6292 80.4315 49.1566 80.4657 62.7236 80.4657C80.1367 80.4657 79.3932 80.5029 79.7996 79.6109C80.0575 79.0451 80.0711 36.2454 79.8136 35.7366C79.7186 35.5489 77.7232 33.4621 75.3794 31.0992L71.1179 26.8031L68.1191 15.555C66.4698 9.36858 64.9573 3.94498 64.7581 3.50271C64.0181 1.85987 62.2807 0.6707 60.4001 0.519788C59.3864 0.438396 59.5118 0.407152 43.5206 4.72016L39.4715 5.81216L37.2717 3.62332C34.7026 1.06688 34.0206 0.645392 32.2902 0.545097C31.5844 0.504322 30.9217 0.560406 30.5082 0.696008ZM32.8509 3.82281C33.141 3.9492 38.0746 8.76931 44.517 15.2209L55.6803 26.4L54.5544 27.5614C53.5724 28.574 53.4283 28.796 53.4283 29.2963C53.4283 30.0332 53.6378 30.4131 54.2063 30.7071C55.0607 31.1489 55.407 31.0258 56.6203 29.8494C57.2406 29.248 57.8127 28.7559 57.8918 28.7559C57.9708 28.7559 60.9348 31.6544 64.4783 35.1973L70.9211 41.6387L70.1084 42.4616L69.2956 43.2846H56.2881H43.2805L43.453 42.9061C43.7034 42.3564 43.4891 41.479 43.0126 41.1042C42.758 40.9041 42.3746 40.7851 41.9839 40.7851C41.416 40.7851 41.2476 40.8957 40.0806 42.0348L38.8001 43.2846H30.6866H22.573L15.5255 36.2155C11.6494 32.3276 8.36325 28.9726 8.22281 28.7601C7.80163 28.1233 7.89005 27.0321 8.42043 26.3188C9.13765 25.354 30.4893 4.11323 31.0103 3.84609C31.5941 3.54677 32.1995 3.53911 32.8509 3.82281ZM61.0358 3.90952C61.3102 4.07699 61.6535 4.3949 61.7984 4.61612C62.0162 4.94856 70.6522 36.7309 70.5529 36.8342C70.5354 36.8523 66.6287 32.9739 61.8711 28.2158L53.2209 19.5645L53.9104 19.3822C56.0943 18.8048 57.5471 16.8757 57.5584 14.5386C57.5654 13.0884 57.0627 11.9372 55.9912 10.9494C54.9477 9.98754 54.0587 9.63775 52.6319 9.62729C51.5744 9.61948 51.3277 9.67822 50.3724 10.1653C49.1314 10.7982 48.2834 11.781 47.8438 13.0958L47.5692 13.9172L44.7901 11.1348L42.0111 8.35266L50.805 5.98854C55.6418 4.68829 59.81 3.62004 60.0678 3.61473C60.3256 3.60941 60.7611 3.74205 61.0358 3.90952ZM28.955 12.1948C27.4722 12.506 26.1352 13.5549 25.4523 14.9422C25.1358 15.5853 25.0743 15.9414 25.0768 17.1173C25.0794 18.333 25.1357 18.629 25.493 19.3044C26.3545 20.9335 27.8113 21.8858 29.6232 22.0041C31.7544 22.1433 33.4616 21.1716 34.3864 19.2927C35.0065 18.0335 35.0829 16.6936 34.613 15.3222C33.8736 13.1645 31.2485 11.7135 28.955 12.1948ZM53.7066 13.0698C54.211 13.4004 54.5711 14.3062 54.4516 14.9434C54.3172 15.66 53.425 16.4142 52.7122 16.4142C50.618 16.4142 50.0255 13.7346 51.9309 12.8808C52.4758 12.6368 53.156 12.7091 53.7066 13.0698ZM31.0212 15.5766C31.3334 15.7811 31.5858 16.1791 31.7678 16.754C31.9136 17.2141 31.563 18.0999 31.0718 18.5133C30.3359 19.1325 29.3478 19.0791 28.6513 18.3827C27.0797 16.8111 29.155 14.3538 31.0212 15.5766ZM30.8561 25.4946C23.8707 27.9277 21.3857 28.8579 21.0957 29.1478C20.4982 29.7456 20.5497 30.6785 21.2134 31.2714C21.4919 31.5204 21.8873 31.7241 22.0921 31.7241C22.2968 31.7241 25.1252 30.8051 28.3776 29.6817C43.0776 24.6046 41.8772 25.0624 42.1692 24.4218C42.6602 23.3441 41.9512 22.1787 40.8253 22.2125C40.4909 22.2225 36.0988 23.6685 30.8561 25.4946ZM30.8681 32.414C29.0339 33.187 27.9611 34.7163 27.8449 36.7233C27.7207 38.8704 28.6638 40.4971 30.5797 41.4404C32.6516 42.4604 34.914 42.023 36.4597 40.3039C38.6601 37.8565 37.861 33.9209 34.8746 32.4973C33.7269 31.9502 32.0511 31.9153 30.8681 32.414ZM14.416 43.2485L10.708 43.2904L7.26922 39.8516L3.83028 36.4128L5.70199 34.5363L7.57354 32.6599L12.8487 37.9332L18.1239 43.2065L14.416 43.2485ZM49.4395 32.9987C49.1366 33.0772 48.3901 33.7064 47.3695 34.7434C45.8537 36.284 45.7734 36.3986 45.7734 37.0251C45.7734 37.9213 46.4203 38.5979 47.277 38.5979C47.8212 38.5979 48.006 38.4594 49.6324 36.8329C51.3027 35.1626 51.3974 35.0339 51.3974 34.4327C51.3974 33.3687 50.5126 32.7207 49.4395 32.9987ZM75.2275 37.3421C74.7184 37.8565 74.2785 38.2538 74.2496 38.225C74.2058 38.1813 73.8008 36.7375 72.9526 33.6025C72.8181 33.1053 72.9465 33.2003 74.4794 34.7331L76.153 36.4067L75.2275 37.3421ZM33.8856 35.5631C35.2941 36.7483 34.5284 38.8323 32.6845 38.8323C32.0956 38.8323 31.9283 38.7521 31.4669 38.2488C31.0283 37.7701 30.9322 37.5422 30.9322 36.981C30.9322 36.2388 31.344 35.551 31.9301 35.3141C32.5983 35.0442 33.3885 35.1448 33.8856 35.5631ZM9.23435 56.313C8.49526 56.7226 8.44745 57.009 8.44152 61.0628C8.43558 65.1887 8.49807 65.5453 9.2909 65.9065C9.87924 66.1746 31.3637 66.1746 31.952 65.9065C32.7427 65.5463 32.8069 65.1846 32.8069 61.0941C32.8069 57.0035 32.7427 56.6419 31.952 56.2816C31.3254 55.996 9.75239 56.0259 9.23435 56.313ZM29.6824 61.0941V62.9688H20.6215H11.5605V61.0941V59.2194H20.6215H29.6824V61.0941ZM9.23435 70.0607C8.31263 70.5715 8.19031 71.659 8.96721 72.4359L9.49837 72.967H15.2088C18.9819 72.967 21.0454 72.9095 21.2913 72.7975C21.7216 72.6015 22.1837 71.8919 22.1837 71.4271C22.1837 70.8922 21.8344 70.3001 21.3799 70.0652C20.7714 69.7505 9.80128 69.7463 9.23435 70.0607ZM39.2292 77.5594C37.8749 78.31 38.4415 80.4657 39.9931 80.4657C40.7847 80.4657 41.5554 79.7026 41.5554 78.9187C41.5554 77.7457 40.2592 76.9884 39.2292 77.5594Z" fill="#005BCB"/>
</svg>
