<svg width="146" height="92" viewBox="0 0 146 92" fill="none" xmlns="http://www.w3.org/2000/svg">
<path fill-rule="evenodd" clip-rule="evenodd" d="M103.62 0.943524C102.196 1.51019 101.349 2.67194 100.595 5.09321L99.8623 7.44542H51.8687C4.22252 7.44542 3.86625 7.44968 2.68476 8.02231C1.85017 8.42671 1.29803 8.97007 0.836734 9.84054L0.178711 11.0824L2.09629 26.5282C3.15117 35.0234 4.08654 42.4537 4.17511 43.0397L4.33606 44.1054H50.805H97.274L102.782 26.628L108.29 9.15053H113.01C117.437 9.15053 117.788 9.11103 118.668 8.51111C120.216 7.45678 120.797 6.44821 120.773 4.85932C120.75 3.27698 120.171 2.28829 118.668 1.26437C117.758 0.64456 117.525 0.625521 111.029 0.642856C107.302 0.653087 104.015 0.786369 103.62 0.943524ZM114.836 16.8946C113.997 19.3557 106.458 43.5572 106.458 43.7894C106.458 44.0182 111.671 44.1054 125.336 44.1054C135.719 44.1054 144.214 44.0409 144.214 43.9622C144.214 43.4004 131.353 18.2499 130.806 17.7403C130.423 17.3848 129.676 16.9693 129.145 16.8167C127.64 16.3848 114.986 16.4535 114.836 16.8946ZM34.3766 26.5638C35.6242 27.4055 36.4926 29.4264 36.2235 30.8621C35.9671 32.2304 34.5654 33.7892 33.2664 34.1504C32.6935 34.3095 30.4957 34.4405 28.382 34.4414C24.9573 34.4428 24.4015 34.3735 23.2788 33.8037C21.7356 33.0207 20.9646 31.7655 20.9646 30.0357C20.9646 28.557 21.653 27.2782 22.887 26.4637C23.6149 25.9834 24.2647 25.9209 28.5637 25.9195C33.1451 25.9175 33.4724 25.9539 34.3766 26.5638ZM59.9577 27.0085C61.0058 27.9872 61.1398 28.2655 61.2596 29.7117C61.3745 31.0979 61.2908 31.4787 60.6634 32.4279C59.4964 34.1933 58.2647 34.5161 53.1413 34.3988C49.3621 34.3121 48.7821 34.2337 48.0889 33.715C45.4247 31.7223 45.3589 28.2962 47.9512 26.5626C48.8616 25.9536 49.1926 25.9175 53.8527 25.9175H58.7893L59.9577 27.0085ZM4.83114 57.7438V62.8563L7.40873 69.3244C8.98963 73.2916 10.273 76.0951 10.7281 76.5754C11.7086 77.6107 12.9463 77.9202 16.1152 77.9219L18.741 77.9236V78.7463C18.741 80.1985 19.8481 83.216 21.0325 84.9913C24.3419 89.9526 30.3626 92.4511 36.1145 91.2505C38.128 90.8302 40.7544 89.5601 42.2317 88.2927L43.4382 87.2574L44.6446 88.2927C48.249 91.3855 54.0843 92.3884 58.6102 90.6932C63.5402 88.8468 67.4858 84.0819 68.0527 79.2902L68.2151 77.9187L83.4297 77.9921L98.6442 78.0657L98.8617 79.6287C99.5024 84.2353 103.487 88.9088 108.291 90.6895C114.793 93.0994 122.627 90.0978 125.847 83.9631C126.75 82.2426 127.034 81.3869 127.596 78.7051L127.76 77.9236L133.645 77.9219C136.882 77.921 139.993 77.7917 140.56 77.6343C141.695 77.3182 143.005 76.1599 143.4 75.1221C143.581 74.6483 145.633 54.0866 145.633 52.7535C145.633 52.6861 113.953 52.631 75.2322 52.631H4.83114V57.7438Z" fill="#FDB913"/>
</svg>
