<svg width="70" height="70" viewBox="0 0 70 70" fill="none" xmlns="http://www.w3.org/2000/svg">
<path d="M61.25 22.604H8.75C7.55417 22.604 6.5625 21.6123 6.5625 20.4165C6.5625 19.2207 7.55417 18.229 8.75 18.229H61.25C62.4458 18.229 63.4375 19.2207 63.4375 20.4165C63.4375 21.6123 62.4458 22.604 61.25 22.604Z" fill="white"/>
<path d="M61.25 37.1875H8.75C7.55417 37.1875 6.5625 36.1958 6.5625 35C6.5625 33.8042 7.55417 32.8125 8.75 32.8125H61.25C62.4458 32.8125 63.4375 33.8042 63.4375 35C63.4375 36.1958 62.4458 37.1875 61.25 37.1875Z" fill="white"/>
<path d="M61.25 51.771H8.75C7.55417 51.771 6.5625 50.7793 6.5625 49.5835C6.5625 48.3877 7.55417 47.396 8.75 47.396H61.25C62.4458 47.396 63.4375 48.3877 63.4375 49.5835C63.4375 50.7793 62.4458 51.771 61.25 51.771Z" fill="white"/>
</svg>
