<svg width="80" height="81" viewBox="0 0 80 81" fill="none" xmlns="http://www.w3.org/2000/svg">
<path fill-rule="evenodd" clip-rule="evenodd" d="M26.2788 0.669848C21.9343 1.52222 18.5467 4.81309 17.6039 9.09726C17.3768 10.1281 17.3517 11.2983 17.3982 18.6288C17.4499 26.7527 17.4612 27.017 17.8006 28.1303C18.4178 30.1545 19.44 31.9302 20.8504 33.4284C21.5904 34.2143 21.6174 34.2748 21.5391 34.9695C21.4411 35.8378 20.8102 36.798 19.9344 37.4112C19.4125 37.7765 18.4061 38.0462 13.6105 39.1057C10.4737 39.7989 7.50093 40.5297 7.0042 40.7297C3.46754 42.1544 0.946218 45.2 0.237605 48.9036C-0.0575589 50.4465 -0.0875597 64.6339 0.203073 65.2718C0.613241 66.1721 -0.528355 66.1268 21.7083 66.1268H42.1658L42.668 67.5649C43.6922 70.498 44.9763 72.521 47.2687 74.8134C49.6318 77.1764 51.6993 78.4652 54.7814 79.4967C58.7623 80.8287 62.8418 80.8161 66.9393 79.459C68.9182 78.8037 69.5495 78.339 69.5495 77.5376C69.5495 76.8307 69.1692 76.2016 68.5988 75.9653C68.149 75.7791 67.9683 75.8063 66.6774 76.2545C62.9856 77.5369 60.0644 77.6752 56.4826 76.7371C53.0633 75.8414 49.5149 73.3199 47.5339 70.3778C43.2256 63.9795 43.9482 55.6121 49.2869 50.0754C54.1763 45.0049 61.9622 43.7637 68.2526 47.0519C75.5379 50.8603 78.6971 59.4291 75.7214 67.3109C75.4415 68.052 75.3423 68.5503 75.4059 68.8936C75.6134 70.0134 77.1419 70.4367 77.9691 69.6034C78.5269 69.0414 79.4787 66.1804 79.786 64.1416C80.5024 59.3882 79.4072 54.5619 76.6909 50.5014C75.6843 48.9968 73.0854 46.3978 71.5808 45.3912C67.2941 42.5235 61.9488 41.4528 56.9518 42.4608L55.6825 42.7169L54.9342 42.1457C53.1912 40.8153 52.5018 40.5819 46.3457 39.2376C40.3729 37.9334 39.9357 37.8148 39.2563 37.313C38.651 36.8661 38.0482 36.0372 37.9005 35.4486C37.8119 35.0955 37.9488 34.8973 38.9669 33.905C40.7653 32.1523 41.9917 30.0525 42.6202 27.6501C42.8274 26.8582 42.8889 25.5788 42.9444 20.9148L43.013 15.1571L43.6269 14.2072C44.8249 12.3538 44.9149 11.8348 44.9821 6.39485L45.0415 1.58644L44.4982 1.04314L43.955 0.5L35.4626 0.517188C30.7917 0.526563 26.6591 0.595315 26.2788 0.669848ZM41.8661 7.2619L41.8144 10.8987L41.3017 11.9394C40.6778 13.2061 39.5773 14.2465 38.3302 14.7485C37.445 15.1048 37.3844 15.1074 28.9624 15.1562L20.4857 15.2051V12.8074C20.4857 11.1584 20.5603 10.1228 20.7249 9.49118C21.4202 6.82189 23.6275 4.59855 26.2671 3.90853C27.1502 3.67774 28.2371 3.64196 34.6003 3.63415L41.9176 3.62508L41.8661 7.2619ZM39.8268 21.9459C39.7687 26.2401 39.7557 26.3944 39.3471 27.6223C38.0246 31.5966 34.4151 34.2706 30.3297 34.3028C28.5702 34.3165 27.5146 34.0901 26.0327 33.3807C23.9545 32.3862 22.4354 30.8885 21.4454 28.8581C20.6078 27.1402 20.4905 26.3126 20.488 22.1021L20.4857 18.313L28.5718 18.3075C36.6559 18.302 38.4941 18.1997 39.3398 17.7081C39.4976 17.6162 39.6852 17.5391 39.7566 17.5364C39.8282 17.5339 39.8598 19.5182 39.8268 21.9459ZM25.936 36.7432C28.5337 37.6321 31.2913 37.6848 33.8504 36.8943C34.4229 36.7175 34.9109 36.5953 34.9351 36.6228C34.9592 36.6503 35.1217 36.9541 35.2964 37.2979C35.964 38.6127 36.9409 39.6665 38.1011 40.3236C38.2397 40.402 37.1036 43.216 34.0845 50.272C31.7692 55.6834 29.8189 60.2033 29.7506 60.3163C29.6718 60.4468 28.0649 56.8618 25.343 50.4824L21.0596 40.4431L21.4366 40.2084C22.2923 39.6761 23.7068 38.0598 24.0843 37.1833C24.2965 36.6907 24.497 36.2863 24.5297 36.2849C24.5625 36.2835 25.1953 36.4896 25.936 36.7432ZM22.5984 51.9858C25.0648 57.7437 27.1186 62.5779 27.1621 62.7282C27.2368 62.987 26.5932 63.0017 15.1913 63.0017H3.14143V56.5499C3.14143 49.5548 3.18081 49.149 4.03271 47.3763C4.58882 46.219 6.37855 44.4562 7.58609 43.8765C8.16329 43.5993 9.70146 43.1705 11.6487 42.7441C13.3722 42.3666 15.4855 41.895 16.3449 41.6964C17.2043 41.4977 17.9539 41.3759 18.0106 41.4259C18.0673 41.4758 20.1317 46.2278 22.5984 51.9858ZM46.1114 42.3858C50.3132 43.2951 52.049 43.8002 52.049 44.1141C52.049 44.1895 51.9824 44.2512 51.901 44.2512C51.4456 44.2512 48.378 46.5697 47.1134 47.8697C43.5114 51.5725 41.709 55.8995 41.6729 60.9304L41.6581 62.9997L36.8441 63.0007C34.1963 63.0012 32.0588 62.949 32.0938 62.8845C32.1289 62.82 34.216 57.9387 36.7317 52.0372C39.4179 45.7359 41.3786 41.3308 41.482 41.3645C41.5789 41.3964 43.6621 41.856 46.1114 42.3858ZM62.0532 55.4232L58.8369 58.6263L57.8257 57.5937C56.7179 56.4623 55.9965 56.0584 55.3407 56.2023C55.0647 56.2629 53.9972 57.2192 52.31 58.917C49.8366 61.4059 49.7052 61.5687 49.7052 62.146C49.7052 62.7329 49.8502 62.8993 53.8806 66.9399C58.3475 71.418 58.5531 71.5696 59.4912 71.0736C60.2461 70.6744 71.7035 59.073 71.822 58.5875C72.0316 57.7306 71.763 57.342 69.1754 54.7593C65.6902 51.2806 66.2669 51.2268 62.0532 55.4232ZM63.4163 62.8059L58.7693 67.4529L56.1121 64.7991L53.455 62.1454L54.5402 61.0601L55.6255 59.9747L56.8824 61.1757C58.0423 62.2837 58.1904 62.3767 58.7976 62.3767C59.445 62.3767 59.508 62.3246 62.6666 59.1756L65.8775 55.9746L66.9705 57.0667L68.0634 58.1589L63.4163 62.8059ZM72.6746 72.3315C71.9314 72.6048 71.5524 73.5851 71.882 74.3811C72.4435 75.7366 74.4279 75.5133 74.7901 74.0537C75.0721 72.9177 73.8301 71.9066 72.6746 72.3315Z" fill="#005BCB"/>
</svg>
