<svg width="160" height="161" viewBox="0 0 160 161" fill="none" xmlns="http://www.w3.org/2000/svg">
<path d="M101.725 103.182C99.6458 101.747 97.3616 100.635 94.95 99.8823L85 96.7573V115.357C85 118.009 83.9464 120.553 82.0711 122.428C80.1957 124.304 77.6522 125.357 75 125.357H50C47.3478 125.357 44.8043 124.304 42.9289 122.428C41.0536 120.553 40 118.009 40 115.357V96.7573L30.05 99.8823C24.9633 101.466 20.5162 104.635 17.3587 108.926C14.2012 113.216 12.4987 118.405 12.5 123.732V152.857H112.5V123.732C112.501 119.691 111.52 115.71 109.644 112.13C107.767 108.551 105.05 105.48 101.725 103.182Z" fill="#3D9AE2"/>
<path d="M141.474 32.1323L137.649 46.4323L126.699 48.6823L118.324 41.2573L122.149 26.9573C118.761 27.8648 115.672 29.6482 113.192 32.1283C110.713 34.6083 108.929 37.6976 108.022 41.0854C107.115 44.4732 107.116 48.0402 108.025 51.4275C108.933 54.8149 110.718 57.9034 113.199 60.3823L101.724 103.182L101.449 104.232C98.0612 105.14 94.9722 106.923 92.4924 109.403C90.0126 111.883 88.2294 114.973 87.3223 118.36C86.4152 121.748 86.416 125.315 87.3247 128.703C88.2334 132.09 90.018 135.178 92.499 137.657L94.999 128.307L96.3239 123.357L107.274 121.132L112.499 125.757L115.649 128.532L112.499 140.307L111.824 142.832C112.052 142.777 112.278 142.71 112.499 142.632C115.795 141.624 118.775 139.78 121.147 137.279C123.52 134.779 125.205 131.706 126.038 128.361C126.871 125.016 126.824 121.513 125.902 118.191C124.979 114.87 123.213 111.844 120.774 109.407L132.524 65.5573C135.912 64.6498 139.001 62.8663 141.481 60.3863C143.96 57.9062 145.743 54.8169 146.651 51.4291C147.558 48.0413 147.557 44.4744 146.648 41.087C145.739 37.6996 143.955 34.6112 141.474 32.1323Z" fill="#FF9811"/>
<path d="M90 42.8574C90.7677 42.8561 91.5255 43.0315 92.2145 43.3702C92.9035 43.7089 93.5053 44.2017 93.9731 44.8104C94.441 45.4191 94.7624 46.1274 94.9124 46.8803C95.0625 47.6332 95.0371 48.4106 94.8383 49.1522C94.6395 49.8937 94.2726 50.5795 93.766 51.1565C93.2595 51.7334 92.6268 52.1859 91.9172 52.4789C91.2076 52.7719 90.44 52.8976 89.674 52.8462C88.908 52.7948 88.1641 52.5677 87.5 52.1824V43.5324C88.2596 43.0918 89.1218 42.859 90 42.8574Z" fill="#FFB655"/>
<path d="M87.5 42.2325V57.8575C87.5 64.4879 84.8661 70.8467 80.1777 75.5351C75.4893 80.2235 69.1304 82.8575 62.5 82.8575C55.8696 82.8575 49.5107 80.2235 44.8223 75.5351C40.1339 70.8467 37.5 64.4879 37.5 57.8575V42.2325C37.9002 42.2783 38.305 42.2614 38.7 42.1825L58.925 38.5075C61.2894 38.0825 63.7106 38.0825 66.075 38.5075L86.3 42.1825C86.695 42.2614 87.0998 42.2783 87.5 42.2325Z" fill="#FFC477"/>
<path d="M85 96.7575V115.358C85 118.01 83.9464 120.553 82.0711 122.429C80.1957 124.304 77.6522 125.358 75 125.358H50C47.3478 125.358 44.8043 124.304 42.9289 122.429C41.0536 120.553 40 118.01 40 115.358V96.7575L46.975 94.5825L50 110.358L62.5 102.858L75 110.358L78.025 94.5825L85 96.7575Z" fill="#5AAAE7"/>
<path d="M78.025 94.5824L75 110.357L62.5 102.857L72.5 92.8574L78.025 94.5824Z" fill="#E6E7E8"/>
<path d="M72.5 80.7576V92.8576L62.5 102.858L52.5 92.8576V80.7576C55.652 82.1424 59.0572 82.8575 62.5 82.8575C65.9428 82.8575 69.348 82.1424 72.5 80.7576Z" fill="#FFC477"/>
<path d="M62.4996 102.857L49.9996 110.357L46.9746 94.5824L52.4996 92.8574L62.4996 102.857Z" fill="#E6E7E8"/>
<path d="M37.501 43.5324V52.1824C36.7411 52.6233 35.8784 52.8561 34.9999 52.8574C34.1213 52.8588 33.2579 52.6286 32.4966 52.1901C31.7353 51.7516 31.103 51.1203 30.6633 50.3596C30.2237 49.599 29.9922 48.736 29.9922 47.8574C29.9922 46.9789 30.2237 46.1158 30.6633 45.3552C31.103 44.5946 31.7353 43.9632 32.4966 43.5247C33.2579 43.0862 34.1213 42.8561 34.9999 42.8574C35.8784 42.8588 36.7411 43.0916 37.501 43.5324Z" fill="#FFB655"/>
<path d="M87.5 42.2325V47.2325C87.0998 47.2783 86.695 47.2614 86.3 47.1825L66.075 43.5075C63.7106 43.0825 61.2894 43.0825 58.925 43.5075L38.7 47.1825C38.305 47.2614 37.9002 47.2783 37.5 47.2325V42.2325C37.9002 42.2783 38.305 42.2614 38.7 42.1825L58.925 38.5075C61.2894 38.0825 63.7106 38.0825 66.075 38.5075L86.3 42.1825C86.695 42.2614 87.0998 42.2783 87.5 42.2325Z" fill="#FFB655"/>
<path d="M87.4996 16.9577V31.7077L75.5996 29.8577L79.3246 11.2327L83.4746 12.0577C84.6086 12.2831 85.6294 12.8946 86.3632 13.788C87.0971 14.6814 87.4987 15.8015 87.4996 16.9577Z" fill="#1E81CE"/>
<path d="M79.3258 11.2326L75.6008 29.8576L66.3008 28.4326C63.7813 28.0576 61.2202 28.0576 58.7008 28.4326L49.4008 29.8576L45.6758 11.2326L58.5758 8.63258C61.1686 8.13256 63.833 8.13256 66.4258 8.63258L79.3258 11.2326Z" fill="#5AAAE7"/>
<path d="M45.675 11.2327L49.4 29.8577L37.5 31.7077V16.9577C37.5009 15.8015 37.9025 14.6814 38.6364 13.788C39.3702 12.8946 40.391 12.2831 41.525 12.0577L45.675 11.2327Z" fill="#1E81CE"/>
<path d="M88.2242 31.8074L87.4992 31.7074L75.5992 29.8574L66.2992 28.4324C63.7798 28.0574 61.2187 28.0574 58.6992 28.4324L49.3992 29.8574L37.4992 31.7074L36.7742 31.8074C35.9971 31.9289 35.2596 32.2321 34.6217 32.6922C33.9838 33.1524 33.4635 33.7566 33.103 34.4557C32.7425 35.1548 32.552 35.929 32.547 36.7156C32.542 37.5021 32.7226 38.2788 33.0742 38.9824L33.3242 39.5074C33.7235 40.2851 34.3185 40.9454 35.0506 41.4232C35.7827 41.901 36.6266 42.1799 37.4992 42.2324C37.8994 42.2782 38.3043 42.2613 38.6992 42.1824L58.9242 38.5074C61.2886 38.0824 63.7098 38.0824 66.0742 38.5074L86.2992 42.1824C86.6942 42.2613 87.0991 42.2782 87.4992 42.2324C88.3719 42.1799 89.2158 41.901 89.9479 41.4232C90.68 40.9454 91.275 40.2851 91.6742 39.5074L91.9242 38.9824C92.2758 38.2788 92.4565 37.5021 92.4515 36.7156C92.4465 35.929 92.256 35.1548 91.8955 34.4557C91.535 33.7566 91.0147 33.1524 90.3767 32.6922C89.7388 32.2321 89.0014 31.9289 88.2242 31.8074Z" fill="#3D9AE2"/>
<path d="M72.5 80.7576V85.7576C69.348 87.1424 65.9428 87.8575 62.5 87.8575C59.0572 87.8575 55.652 87.1424 52.5 85.7576V80.7576C55.652 82.1424 59.0572 82.8575 62.5 82.8575C65.9428 82.8575 69.348 82.1424 72.5 80.7576Z" fill="#FFB655"/>
<path d="M47.5 47.8574H52.5V52.8574H47.5V47.8574Z" fill="black"/>
<path d="M72.5 47.8574H77.5V52.8574H72.5V47.8574Z" fill="black"/>
<path d="M72.5 62.8574H67.5C67.5 64.1835 66.9732 65.4553 66.0355 66.393C65.0979 67.3306 63.8261 67.8574 62.5 67.8574C61.1739 67.8574 59.9021 67.3306 58.9645 66.393C58.0268 65.4553 57.5 64.1835 57.5 62.8574H52.5C52.5 65.5096 53.5536 68.0531 55.4289 69.9285C57.3043 71.8039 59.8478 72.8574 62.5 72.8574C65.1522 72.8574 67.6957 71.8039 69.5711 69.9285C71.4464 68.0531 72.5 65.5096 72.5 62.8574Z" fill="black"/>
<path d="M143.25 30.3574C142.939 30.0484 142.553 29.8265 142.129 29.7139C141.706 29.6014 141.26 29.6021 140.837 29.716C140.414 29.83 140.028 30.0532 139.719 30.3632C139.409 30.6732 139.186 31.0591 139.073 31.4824L135.643 44.2849L127.425 45.9649L121.153 40.4024L124.575 27.6074C124.688 27.1841 124.688 26.7386 124.575 26.3154C124.462 25.8922 124.239 25.5062 123.93 25.196C123.621 24.8858 123.235 24.6624 122.812 24.5482C122.389 24.4339 121.944 24.4327 121.52 24.5449C117.827 25.5304 114.446 27.4418 111.698 30.0984C108.949 32.755 106.924 36.0689 105.814 39.7265C104.704 43.3842 104.545 47.2646 105.353 51.0007C106.16 54.7368 107.908 58.2051 110.43 61.0774L100.175 99.3574C98.7393 98.6075 97.2412 97.9835 95.6977 97.4924L75.0002 91.0199V82.3424C79.5149 80.041 83.3054 76.536 85.9526 72.2149C88.5998 67.8938 90.0006 62.9249 90.0002 57.8574V55.3574C91.6719 55.3629 93.2973 54.8078 94.6165 53.7808C95.9357 52.7539 96.8725 51.3144 97.2773 49.6923C97.6821 48.0703 97.5315 46.3594 96.8495 44.833C96.1675 43.3067 94.9935 42.053 93.5152 41.2724C93.6597 41.0647 93.7916 40.8484 93.9102 40.6249L94.1602 40.1099C94.6363 39.1654 94.9059 38.1304 94.9512 37.0737C94.9966 36.017 94.8165 34.9627 94.423 33.9809C94.0296 32.9991 93.4317 32.1123 92.6691 31.3794C91.9066 30.6464 90.9968 30.0841 90.0002 29.7299V16.9574C89.9924 15.2256 89.3884 13.5493 88.2897 12.2107C87.191 10.872 85.6647 9.95268 83.9677 9.60737L66.8977 6.17487C63.9852 5.61489 60.9927 5.61489 58.0802 6.17487L41.0302 9.60737C39.3336 9.95319 37.8079 10.8727 36.7097 12.2113C35.6115 13.55 35.0078 15.2259 35.0002 16.9574V29.7299C34.0032 30.0834 33.093 30.6451 32.3298 31.3775C31.5667 32.1099 30.9681 32.9964 30.5739 33.9779C30.1798 34.9595 29.999 36.0137 30.0436 37.0705C30.0882 38.1273 30.3572 39.1625 30.8327 40.1074L31.0827 40.6074C31.1999 40.8333 31.3293 41.0528 31.4702 41.2649C29.9866 42.0441 28.8079 43.2992 28.1233 44.8287C27.4387 46.3582 27.2879 48.0733 27.6951 49.6989C28.1022 51.3244 29.0438 52.7659 30.3685 53.7921C31.6933 54.8182 33.3245 55.3695 35.0002 55.3574V57.8574C35.0057 62.921 36.4091 67.8848 39.0559 72.2016C41.7026 76.5185 45.4899 80.0207 50.0002 82.3224V91.0199L29.3077 97.4924C23.7016 99.2184 18.7987 102.701 15.3223 107.425C11.8459 112.15 9.98009 117.867 10.0002 123.732V152.857C10.0002 153.52 10.2636 154.156 10.7324 154.625C11.2012 155.094 11.8371 155.357 12.5002 155.357H112.5C113.163 155.357 113.799 155.094 114.268 154.625C114.737 154.156 115 153.52 115 152.857V147.857H110V150.357H97.5002V142.857H92.5002V150.357H32.5002V122.857H27.5002V150.357H15.0002V123.732C14.9831 118.934 16.5093 114.257 19.3534 110.392C22.1974 106.527 26.2087 103.679 30.7952 102.267L37.5002 100.17V115.357C37.5041 118.671 38.8224 121.848 41.1657 124.192C43.5091 126.535 46.6862 127.853 50.0002 127.857H75.0002C76.724 127.854 78.4282 127.491 80.0044 126.793C81.5806 126.095 82.9941 125.077 84.1552 123.802C84.224 129.674 86.5917 135.284 90.7502 139.43C91.0609 139.739 91.4473 139.961 91.8708 140.073C92.2943 140.186 92.74 140.185 93.1631 140.071C93.5862 139.957 93.972 139.734 94.2817 139.424C94.5914 139.114 94.8141 138.728 94.9277 138.305L98.3577 125.502L106.573 123.82L112.848 129.382L109.418 142.185C109.318 142.555 109.306 142.944 109.38 143.32C109.455 143.696 109.615 144.05 109.849 144.354C110.082 144.658 110.383 144.905 110.727 145.075C111.071 145.244 111.449 145.332 111.833 145.332C112.048 145.332 112.262 145.304 112.47 145.25C116.164 144.266 119.546 142.355 122.295 139.698C125.044 137.042 127.07 133.728 128.181 130.07C129.291 126.411 129.45 122.53 128.641 118.794C127.832 115.057 126.084 111.589 123.56 108.717L134.59 67.5499C138.213 66.3245 141.462 64.1948 144.032 61.3623C146.601 58.5298 148.404 55.0883 149.272 51.3639C150.139 47.6394 150.041 43.7552 148.987 40.0791C147.933 36.4031 145.959 33.0568 143.25 30.3574ZM96.8227 103.31C92.9745 105.196 89.7415 108.137 87.5002 111.79V100.17L94.2027 102.267C95.097 102.56 95.9721 102.908 96.8227 103.31ZM75.1477 96.3099L73.2177 106.377L66.5327 102.377L73.1977 95.7124L75.1477 96.3099ZM38.2502 39.7274C37.717 39.8241 37.1669 39.7449 36.6827 39.5019C36.1984 39.2589 35.8062 38.8651 35.5652 38.3799L35.3152 37.8799C35.1388 37.5274 35.0483 37.1383 35.0509 36.7442C35.0536 36.3501 35.1494 35.9623 35.3305 35.6122C35.5116 35.2622 35.7729 34.96 36.093 34.7302C36.4132 34.5004 36.7831 34.3495 37.1727 34.2899L59.0927 30.9199C61.3592 30.5699 63.6661 30.5699 65.9327 30.9199L87.8527 34.2899C88.2418 34.3494 88.6113 34.5 88.9312 34.7294C89.2511 34.9587 89.5123 35.2604 89.6936 35.6098C89.8749 35.9592 89.9711 36.3464 89.9744 36.74C89.9777 37.1336 89.888 37.5225 89.7127 37.8749L89.4627 38.3899C89.2209 38.8737 88.8288 39.2661 88.3451 39.5081C87.8615 39.7502 87.3123 39.8289 86.7802 39.7324L66.5452 36.0499C63.8854 35.5649 61.1599 35.5649 58.5002 36.0499L38.2502 39.7274ZM90.0002 50.3574V45.3574C90.6632 45.3574 91.2991 45.6208 91.7679 46.0896C92.2368 46.5584 92.5002 47.1943 92.5002 47.8574C92.5002 48.5204 92.2368 49.1563 91.7679 49.6251C91.2991 50.094 90.6632 50.3574 90.0002 50.3574ZM85.0002 16.9574V28.7899L78.5627 27.7899L81.2877 14.1574L82.9777 14.4974C83.5467 14.6115 84.0588 14.9187 84.4273 15.3669C84.7959 15.8152 84.9982 16.377 85.0002 16.9574ZM59.0452 11.0874C61.32 10.6486 63.6578 10.6486 65.9327 11.0874L76.3877 13.1874L73.6152 27.0449L66.6827 25.9774C63.9109 25.5474 61.0894 25.5474 58.3177 25.9774L51.3852 27.0449L48.6127 13.1824L59.0452 11.0874ZM42.0202 14.5074L43.7127 14.1674L46.4377 27.7999L40.0002 28.7999V16.9574C40.0043 16.3791 40.2073 15.8199 40.5752 15.3737C40.943 14.9276 41.4533 14.6216 42.0202 14.5074ZM32.5002 47.8574C32.5002 47.1943 32.7636 46.5584 33.2324 46.0896C33.7012 45.6208 34.3371 45.3574 35.0002 45.3574V50.3574C34.3371 50.3574 33.7012 50.094 33.2324 49.6251C32.7636 49.1563 32.5002 48.5204 32.5002 47.8574ZM40.0002 57.8574V44.4874L59.3702 40.9674C61.4365 40.5911 63.5538 40.5911 65.6202 40.9674L85.0002 44.4874V57.8574C85.0002 63.8247 82.6296 69.5477 78.4101 73.7673C74.1905 77.9868 68.4675 80.3574 62.5002 80.3574C56.5328 80.3574 50.8098 77.9868 46.5903 73.7673C42.3707 69.5477 40.0002 63.8247 40.0002 57.8574ZM62.5002 85.3574C65.0366 85.3528 67.5604 84.9987 70.0002 84.3049V91.8224L62.5002 99.3224L55.0002 91.8224V84.2924C57.4388 84.9927 59.9629 85.3511 62.5002 85.3574ZM51.8027 95.6949L58.4677 102.357L51.7827 106.357L49.8527 96.2899L51.8027 95.6949ZM75.0002 122.857H50.0002C48.011 122.857 46.1034 122.067 44.6969 120.661C43.2903 119.254 42.5002 117.346 42.5002 115.357V98.6074L45.0477 97.8099L47.5477 110.83C47.623 111.226 47.793 111.598 48.0434 111.915C48.2938 112.231 48.617 112.482 48.9854 112.646C49.3539 112.811 49.7566 112.884 50.1592 112.858C50.5619 112.833 50.9525 112.711 51.2977 112.502L62.5002 105.772L73.7127 112.5C74.0579 112.709 74.4484 112.831 74.8511 112.856C75.2537 112.881 75.6565 112.808 76.0249 112.644C76.3933 112.48 76.7165 112.229 76.9669 111.912C77.2173 111.596 77.3874 111.224 77.4627 110.827L79.9627 97.8074L82.5002 98.6074V115.357C82.5002 117.346 81.71 119.254 80.3035 120.661C78.8969 122.067 76.9893 122.857 75.0002 122.857ZM144.25 50.7899C143.449 53.752 141.884 56.4523 139.713 58.621C137.542 60.7898 134.841 62.3514 131.878 63.1499C131.454 63.2639 131.068 63.4872 130.759 63.7974C130.449 64.1076 130.226 64.4939 130.113 64.9174L118.363 108.76C118.249 109.183 118.249 109.629 118.362 110.052C118.476 110.476 118.698 110.862 119.008 111.172C120.896 113.057 122.328 115.348 123.193 117.872C124.059 120.395 124.335 123.083 124.001 125.73C123.667 128.376 122.732 130.911 121.266 133.14C119.801 135.37 117.845 137.234 115.548 138.59L118.068 129.185C118.189 128.737 118.182 128.264 118.05 127.82C117.918 127.375 117.664 126.976 117.318 126.667L108.95 119.25C108.493 118.844 107.904 118.62 107.293 118.62C107.125 118.621 106.957 118.637 106.793 118.67L95.8402 120.92C95.3858 121.013 94.9663 121.231 94.6285 121.549C94.2908 121.866 94.0481 122.272 93.9277 122.72L91.4102 132.125C90.0987 129.802 89.3364 127.21 89.1818 124.547C89.0272 121.884 89.4843 119.221 90.5182 116.762C91.552 114.303 93.1352 112.114 95.1462 110.361C97.1573 108.609 99.5429 107.34 102.12 106.652C102.544 106.538 102.929 106.315 103.239 106.005C103.549 105.695 103.772 105.308 103.885 104.885L115.635 61.0399C115.749 60.6165 115.749 60.1707 115.635 59.7473C115.522 59.3239 115.3 58.9377 114.99 58.6274C113.103 56.7426 111.671 54.4507 110.806 51.9274C109.941 49.4041 109.665 46.7162 109.999 44.0697C110.334 41.4232 111.269 38.8884 112.734 36.6593C114.2 34.4303 116.156 32.5662 118.453 31.2099L115.915 40.6074C115.795 41.0549 115.801 41.5271 115.934 41.9712C116.066 42.4153 116.319 42.8139 116.665 43.1224L125.03 50.5399C125.32 50.7972 125.666 50.9836 126.041 51.0843C126.415 51.1849 126.808 51.1971 127.188 51.1199L138.143 48.8699C138.597 48.7766 139.017 48.5586 139.355 48.2402C139.693 47.9218 139.935 47.5157 140.055 47.0674L142.575 37.6649C144.832 41.6514 145.433 46.3644 144.25 50.7899Z" fill="black"/>
</svg>
