<svg width="140" height="140" viewBox="0 0 140 140" fill="none" xmlns="http://www.w3.org/2000/svg">
<path d="M120.312 6.56226C121.472 6.56572 122.583 7.02777 123.402 7.84749C124.222 8.66721 124.684 9.778 124.688 10.9373C124.679 12.0949 124.215 13.2027 123.397 14.0214C122.578 14.84 121.47 15.3037 120.312 15.3123H107.188C106.028 15.3088 104.917 14.8467 104.098 14.027C103.278 13.2073 102.816 12.0965 102.812 10.9373C102.821 9.77959 103.285 8.67177 104.103 7.85315C104.922 7.03454 106.03 6.57084 107.188 6.56226H120.312Z" fill="#FF9811"/>
<path d="M94.0625 111.562V115.937C94.059 117.097 93.597 118.207 92.7773 119.027C91.9575 119.847 90.8468 120.309 89.6875 120.312H19.6875C18.5298 120.304 17.422 119.84 16.6034 119.021C15.7848 118.203 15.3211 117.095 15.3125 115.937C15.316 114.778 15.778 113.667 16.5977 112.847C17.4175 112.028 18.5282 111.566 19.6875 111.562H94.0625Z" fill="#CC7400"/>
<path d="M83.125 133.437C86.7494 133.437 89.6875 130.499 89.6875 126.875C89.6875 123.25 86.7494 120.312 83.125 120.312C79.5006 120.312 76.5625 123.25 76.5625 126.875C76.5625 130.499 79.5006 133.437 83.125 133.437Z" fill="#57565C"/>
<path d="M24.0625 67.8123H80.9375V102.812H24.0625V67.8123Z" fill="#FF9811"/>
<path d="M59.0625 54.6873H80.9375V67.8123H59.0625V54.6873Z" fill="#EE8700"/>
<path d="M80.9375 19.6873V54.6873H59.0625H45.9375H24.0625V19.6873H80.9375Z" fill="#FF9811"/>
<path d="M59.0625 6.56226H80.9375V19.6873H59.0625V6.56226Z" fill="#EE8700"/>
<path d="M24.0625 54.6873H45.9375V67.8123H24.0625V54.6873Z" fill="#EE8700"/>
<path d="M24.0625 6.56226H45.9375V19.6873H24.0625V6.56226Z" fill="#EE8700"/>
<path d="M26.25 133.437C29.8744 133.437 32.8125 130.499 32.8125 126.875C32.8125 123.25 29.8744 120.312 26.25 120.312C22.6256 120.312 19.6875 123.25 19.6875 126.875C19.6875 130.499 22.6256 133.437 26.25 133.437Z" fill="#57565C"/>
<path d="M80.9398 6.56226H72.1898C72.1891 11.0006 71.5744 15.4174 70.3633 19.6873H80.9398V6.56226Z" fill="#CC7400"/>
<path d="M70.3609 19.6873C67.5023 29.7638 61.435 38.633 53.0796 44.9494C44.7243 51.2658 34.5367 54.6846 24.0625 54.6873H80.9375V19.6873H70.3609Z" fill="#EF8D0D"/>
<path d="M80.9398 54.6873H72.1898C72.1891 59.1256 71.5744 63.5424 70.3633 67.8123H80.9398V54.6873Z" fill="#CC7400"/>
<path d="M70.3609 67.8123C67.5023 77.8888 61.435 86.758 53.0796 93.0744C44.7243 99.3908 34.5367 102.81 24.0625 102.812H80.9375V67.8123H70.3609Z" fill="#EF8D0D"/>
<path d="M59.0625 67.8123V76.5623L52.5 72.1873L45.9375 76.5623V67.8123V54.6873H59.0625V67.8123Z" fill="#E6E7E8"/>
<path d="M59.0625 19.6873V28.4373L52.5 24.0623L45.9375 28.4373V19.6873V6.56226H59.0625V19.6873Z" fill="#E6E7E8"/>
<path d="M24.0625 105H80.9375C81.5177 105 82.0741 104.769 82.4843 104.359C82.8945 103.949 83.125 103.392 83.125 102.812V6.56226C83.125 5.98209 82.8945 5.4257 82.4843 5.01546C82.0741 4.60522 81.5177 4.37476 80.9375 4.37476H24.0625C23.4823 4.37476 22.9259 4.60522 22.5157 5.01546C22.1055 5.4257 21.875 5.98209 21.875 6.56226V102.812C21.875 103.392 22.1055 103.949 22.5157 104.359C22.9259 104.769 23.4823 105 24.0625 105ZM26.25 21.8748H43.75V28.4373C43.7499 28.8333 43.8574 29.2219 44.0609 29.5617C44.2644 29.9014 44.5563 30.1795 44.9055 30.3664C45.2547 30.5532 45.6481 30.6417 46.0436 30.6225C46.4392 30.6033 46.8221 30.4771 47.1516 30.2573L52.5 26.6873L57.8484 30.2529C58.1776 30.4725 58.5601 30.5987 58.9553 30.6181C59.3505 30.6375 59.7435 30.5493 60.0926 30.363C60.4416 30.1767 60.7336 29.8992 60.9374 29.5601C61.1412 29.221 61.2493 28.8329 61.25 28.4373V21.8748H78.75V52.4998H26.25V21.8748ZM48.125 8.74976H56.875V24.3488L53.7141 22.2423C53.3546 22.0024 52.9321 21.8744 52.5 21.8744C52.0679 21.8744 51.6454 22.0024 51.2859 22.2423L48.125 24.3488V8.74976ZM78.75 65.6248H61.25V56.8748H78.75V65.6248ZM48.125 56.8748H56.875V72.4738L53.7141 70.3673C53.3546 70.1274 52.9321 69.9994 52.5 69.9994C52.0679 69.9994 51.6454 70.1274 51.2859 70.3673L48.125 72.4738V56.8748ZM43.75 56.8748V65.6248H26.25V56.8748H43.75ZM26.25 100.625V69.9998H43.75V76.5623C43.7499 76.9583 43.8574 77.3469 44.0609 77.6866C44.2644 78.0264 44.5563 78.3045 44.9055 78.4914C45.2547 78.6782 45.6481 78.7667 46.0436 78.7475C46.4392 78.7283 46.8221 78.6021 47.1516 78.3823L52.5 74.8123L57.8484 78.3779C58.1776 78.5975 58.5601 78.7237 58.9553 78.7431C59.3505 78.7625 59.7435 78.6743 60.0926 78.488C60.4416 78.3017 60.7336 78.0242 60.9374 77.6851C61.1412 77.346 61.2493 76.9579 61.25 76.5623V69.9998H78.75V100.625H26.25ZM78.75 17.4998H61.25V8.74976H78.75V17.4998ZM43.75 8.74976V17.4998H26.25V8.74976H43.75Z" fill="black"/>
<path d="M120.313 4.37476H107.188C105.836 4.38036 104.518 4.80369 103.416 5.58682C102.313 6.36996 101.479 7.47464 101.028 8.74976H96.2509C95.8425 8.74753 95.4417 8.85965 95.0937 9.07344C94.7458 9.28723 94.4647 9.59414 94.2821 9.95944L92.0946 14.3344C91.947 14.6391 91.8722 14.9738 91.8759 15.3123V109.375H19.6884C18.027 109.368 16.4251 109.992 15.2073 111.122C13.9894 112.252 13.2467 113.803 13.1296 115.46C13.0125 117.118 13.5298 118.757 14.5766 120.047C15.6235 121.337 17.1216 122.181 18.7674 122.408C17.9468 123.754 17.5089 125.298 17.5009 126.875C17.5009 129.195 18.4228 131.421 20.0637 133.062C21.7046 134.703 23.9302 135.625 26.2509 135.625C28.5715 135.625 30.7971 134.703 32.4381 133.062C34.079 131.421 35.0009 129.195 35.0009 126.875C34.9918 125.334 34.572 123.824 33.7846 122.5H75.5921C74.8048 123.824 74.385 125.334 74.3759 126.875C74.3759 129.195 75.2978 131.421 76.9387 133.062C78.5796 134.703 80.8052 135.625 83.1259 135.625C85.4465 135.625 87.6721 134.703 89.3131 133.062C90.954 131.421 91.8759 129.195 91.8759 126.875C91.8679 125.298 91.43 123.754 90.6093 122.408C92.17 122.187 93.599 121.411 94.6349 120.223C95.6708 119.035 96.2444 117.514 96.2509 115.937V15.8285L97.6028 13.1248H101.028C101.479 14.3999 102.313 15.5046 103.416 16.2877C104.518 17.0708 105.836 17.4941 107.188 17.4998H120.313C122.054 17.4998 123.723 16.8084 124.954 15.5776C126.184 14.3469 126.876 12.6777 126.876 10.9373C126.876 9.19677 126.184 7.52758 124.954 6.29687C123.723 5.06616 122.054 4.37476 120.313 4.37476ZM30.6259 126.875C30.6259 127.74 30.3693 128.586 29.8886 129.305C29.4078 130.025 28.7246 130.586 27.9251 130.917C27.1257 131.248 26.246 131.335 25.3974 131.166C24.5487 130.997 23.7691 130.58 23.1573 129.968C22.5454 129.356 22.1288 128.577 21.9599 127.728C21.7911 126.88 21.8778 126 22.2089 125.201C22.54 124.401 23.1008 123.718 23.8203 123.237C24.5397 122.756 25.3856 122.5 26.2509 122.5C27.4112 122.5 28.524 122.961 29.3445 123.781C30.1649 124.602 30.6259 125.714 30.6259 126.875ZM83.1259 131.25C82.2606 131.25 81.4147 130.993 80.6953 130.512C79.9758 130.032 79.415 129.348 79.0839 128.549C78.7528 127.75 78.6661 126.87 78.835 126.021C79.0038 125.173 79.4204 124.393 80.0323 123.781C80.6441 123.169 81.4237 122.753 82.2724 122.584C83.121 122.415 84.0007 122.502 84.8001 122.833C85.5995 123.164 86.2828 123.725 86.7636 124.444C87.2443 125.164 87.5009 126.009 87.5009 126.875C87.5009 128.035 87.0399 129.148 86.2195 129.968C85.399 130.789 84.2862 131.25 83.1259 131.25ZM91.8759 115.937C91.8759 116.517 91.6454 117.074 91.2352 117.484C90.8249 117.894 90.2685 118.125 89.6884 118.125H19.6884C19.1082 118.125 18.5518 117.894 18.1416 117.484C17.7314 117.074 17.5009 116.517 17.5009 115.937C17.5009 115.357 17.7314 114.801 18.1416 114.39C18.5518 113.98 19.1082 113.75 19.6884 113.75H91.8759V115.937ZM120.313 13.1248H107.188C106.608 13.1248 106.052 12.8943 105.642 12.4841C105.231 12.0738 105.001 11.5174 105.001 10.9373C105.001 10.3571 105.231 9.8007 105.642 9.39046C106.052 8.98022 106.608 8.74976 107.188 8.74976H120.313C120.894 8.74976 121.45 8.98022 121.86 9.39046C122.27 9.8007 122.501 10.3571 122.501 10.9373C122.501 11.5174 122.27 12.0738 121.86 12.4841C121.45 12.8943 120.894 13.1248 120.313 13.1248Z" fill="black"/>
</svg>
