<svg width="160" height="161" viewBox="0 0 160 161" fill="none" xmlns="http://www.w3.org/2000/svg">
<path d="M45 22.8574H115V37.8574H45V22.8574Z" fill="#EE8700"/>
<path d="M115 37.8574V72.8574C114.996 74.1823 114.468 75.4518 113.531 76.3886C112.594 77.3254 111.325 77.8535 110 77.8574H50C48.6751 77.8535 47.4057 77.3254 46.4688 76.3886C45.532 75.4518 45.004 74.1823 45 72.8574V37.8574H115Z" fill="#FF9811"/>
<path d="M132.5 78.8574V55.3574C132.5 53.3683 133.29 51.4606 134.697 50.0541C136.103 48.6476 138.011 47.8574 140 47.8574C141.989 47.8574 143.897 48.6476 145.303 50.0541C146.71 51.4606 147.5 53.3683 147.5 55.3574V115.357L137.5 127.857V132.857H107.5V112.857L125 82.5574C125.655 81.4135 126.602 80.4637 127.744 79.8049C128.886 79.1462 130.182 78.802 131.5 78.8074C131.825 78.8074 132.175 78.8324 132.5 78.8574Z" fill="#FFC477"/>
<path d="M142.5 132.857V152.857H102.5V132.857H107.5H137.5H142.5Z" fill="#3D9AE2"/>
<path d="M105 7.85742L115 22.8574H87.5H72.5H45L55 7.85742H105Z" fill="#FF9811"/>
<path d="M95 107.857H87.5V127.857H72.5V107.857H65L80 92.8574L95 107.857Z" fill="#FF5023"/>
<path d="M87.5 37.8574V47.8574L80 42.8574L72.5 47.8574V37.8574V22.8574H87.5V37.8574Z" fill="#E6E7E8"/>
<path d="M60 132.857V152.857H20V132.857H25H55H60Z" fill="#3D9AE2"/>
<path d="M30 78.8574C30.325 78.8324 30.675 78.8074 31 78.8074C32.3183 78.802 33.6144 79.1462 34.7562 79.8049C35.8981 80.4637 36.8449 81.4135 37.5 82.5574L55 112.857V132.857H25V127.857L15 115.357V55.3574C15 53.3683 15.7902 51.4606 17.1967 50.0541C18.6032 48.6476 20.5109 47.8574 22.5 47.8574C24.4891 47.8574 26.3968 48.6476 27.8033 50.0541C29.2098 51.4606 30 53.3683 30 55.3574V78.8574Z" fill="#FFC477"/>
<path d="M117.075 21.4824L107.075 6.48242C106.849 6.13852 106.541 5.85588 106.179 5.65962C105.817 5.46336 105.412 5.35955 105 5.35742H55C54.5882 5.35955 54.1834 5.46336 53.8214 5.65962C53.4594 5.85588 53.1515 6.13852 52.925 6.48242L42.925 21.4824C42.647 21.887 42.4988 22.3666 42.5 22.8574V72.8574C42.5059 74.8447 43.298 76.7489 44.7033 78.1542C46.1085 79.5594 48.0127 80.3515 50 80.3574H110C111.987 80.3515 113.892 79.5594 115.297 78.1542C116.702 76.7489 117.494 74.8447 117.5 72.8574V22.8574C117.501 22.3666 117.353 21.887 117.075 21.4824ZM56.35 10.3574H103.65L110.325 20.3574H49.675L56.35 10.3574ZM85 25.3574V43.1824L81.375 40.7824C80.9715 40.5016 80.4916 40.3511 80 40.3511C79.5084 40.3511 79.0285 40.5016 78.625 40.7824L75 43.1824V25.3574H85ZM47.5 25.3574H70V35.3574H47.5V25.3574ZM112.5 72.8574C112.5 73.5205 112.237 74.1563 111.768 74.6252C111.299 75.094 110.663 75.3574 110 75.3574H50C49.337 75.3574 48.7011 75.094 48.2322 74.6252C47.7634 74.1563 47.5 73.5205 47.5 72.8574V40.3574H70V47.8574C69.9968 48.3106 70.1188 48.7558 70.3526 49.1441C70.5864 49.5323 70.9229 49.8483 71.325 50.0574C71.719 50.2778 72.167 50.3829 72.6179 50.3608C73.0688 50.3387 73.5044 50.1902 73.875 49.9324L80 45.8574L86.125 49.9324C86.501 50.18 86.9369 50.3215 87.3866 50.342C87.8364 50.3624 88.2833 50.261 88.6802 50.0484C89.0771 49.8359 89.4092 49.5202 89.6415 49.1345C89.8738 48.7489 89.9977 48.3076 90 47.8574V40.3574H112.5V72.8574ZM112.5 35.3574H90V25.3574H112.5V35.3574Z" fill="black"/>
<path d="M81.767 91.0899C81.2981 90.6212 80.6624 90.3579 79.9995 90.3579C79.3366 90.3579 78.7008 90.6212 78.232 91.0899L63.232 106.09C62.8824 106.44 62.6444 106.885 62.548 107.37C62.4516 107.855 62.5011 108.357 62.6903 108.814C62.8794 109.271 63.1998 109.661 63.6108 109.936C64.0218 110.211 64.5051 110.357 64.9995 110.357H69.9995V127.857H74.9995V107.857C74.9995 107.194 74.7361 106.558 74.2672 106.09C73.7984 105.621 73.1625 105.357 72.4995 105.357H71.0345L79.9995 96.3924L88.9645 105.357H87.4995C86.8364 105.357 86.2005 105.621 85.7317 106.09C85.2629 106.558 84.9995 107.194 84.9995 107.857V137.857H89.9995V110.357H94.9995C95.4938 110.357 95.9771 110.211 96.3881 109.936C96.7991 109.661 97.1195 109.271 97.3087 108.814C97.4978 108.357 97.5473 107.855 97.4509 107.37C97.3545 106.885 97.1165 106.44 96.767 106.09L81.767 91.0899Z" fill="black"/>
<path d="M127.5 10.3574H132.5V25.3574H127.5V10.3574Z" fill="black"/>
<path d="M127.5 30.3574H132.5V35.3574H127.5V30.3574Z" fill="black"/>
<path d="M142.5 17.8574H147.5V27.8574H142.5V17.8574Z" fill="black"/>
<path d="M142.5 32.8574H147.5V37.8574H142.5V32.8574Z" fill="black"/>
<path d="M27.5 10.3574H32.5V25.3574H27.5V10.3574Z" fill="black"/>
<path d="M27.5 30.3574H32.5V35.3574H27.5V30.3574Z" fill="black"/>
<path d="M12.5 17.8574H17.5V27.8574H12.5V17.8574Z" fill="black"/>
<path d="M12.5 32.8574H17.5V37.8574H12.5V32.8574Z" fill="black"/>
<path d="M110 140.357H115V145.357H110V140.357Z" fill="black"/>
<path d="M140 45.3574C137.348 45.3574 134.804 46.411 132.929 48.2864C131.054 50.1617 130 52.7053 130 55.3574V76.4574C129.63 76.4913 129.262 76.5498 128.9 76.6324C127.63 76.9738 126.439 77.5625 125.397 78.3647C124.354 79.1669 123.48 80.1669 122.825 81.3074L105.325 111.607C105.116 111.991 105.004 112.42 105 112.857V130.357H102.5C101.837 130.357 101.201 130.621 100.732 131.09C100.263 131.558 100 132.194 100 132.857V152.857C100 153.52 100.263 154.156 100.732 154.625C101.201 155.094 101.837 155.357 102.5 155.357H142.5C143.163 155.357 143.799 155.094 144.268 154.625C144.737 154.156 145 153.52 145 152.857V132.857C145 132.194 144.737 131.558 144.268 131.09C143.799 130.621 143.163 130.357 142.5 130.357H140V128.732L149.45 116.907C149.807 116.47 150.001 115.922 150 115.357V55.3574C150 52.7053 148.946 50.1617 147.071 48.2864C145.196 46.411 142.652 45.3574 140 45.3574ZM140 150.357H105V135.357H140V150.357ZM145 114.482L135.55 126.307C135.193 126.745 134.999 127.293 135 127.857V130.357H110V113.532L127.175 83.8074C127.488 83.2099 127.918 82.6818 128.44 82.2548C128.962 81.8279 129.565 81.5109 130.212 81.323C130.86 81.1352 131.539 81.0802 132.208 81.1615C132.878 81.2428 133.524 81.4587 134.108 81.7962C134.691 82.1337 135.201 82.5858 135.606 83.1253C136.01 83.6647 136.301 84.2805 136.462 84.9355C136.622 85.5905 136.649 86.2711 136.539 86.9365C136.43 87.6019 136.187 88.2383 135.825 88.8074L123.325 110.457L127.65 112.957L140.15 91.3074C141.476 89.0093 141.837 86.2789 141.152 83.7152C140.468 81.1516 138.795 78.964 136.5 77.6324C136.017 77.3718 135.516 77.1463 135 76.9574V55.3574C135 54.0313 135.527 52.7596 136.464 51.8219C137.402 50.8842 138.674 50.3574 140 50.3574C141.326 50.3574 142.598 50.8842 143.536 51.8219C144.473 52.7596 145 54.0313 145 55.3574V114.482Z" fill="black"/>
<path d="M60 130.357H57.5V112.857C57.4961 112.42 57.3845 111.991 57.175 111.607L39.675 81.3074C38.9199 80.0122 37.8828 78.9037 36.6407 78.064C35.3986 77.2244 33.9834 76.6753 32.5 76.4574V55.3574C32.5 52.7053 31.4464 50.1617 29.5711 48.2864C27.6957 46.411 25.1522 45.3574 22.5 45.3574C19.8478 45.3574 17.3043 46.411 15.4289 48.2864C13.5536 50.1617 12.5 52.7053 12.5 55.3574V115.357C12.4986 115.922 12.693 116.47 13.05 116.907L22.5 128.732V130.357H20C19.337 130.357 18.7011 130.621 18.2322 131.09C17.7634 131.558 17.5 132.194 17.5 132.857V152.857C17.5 153.52 17.7634 154.156 18.2322 154.625C18.7011 155.094 19.337 155.357 20 155.357H60C60.6631 155.357 61.2989 155.094 61.7678 154.625C62.2366 154.156 62.5 153.52 62.5 152.857V132.857C62.5 132.194 62.2366 131.558 61.7678 131.09C61.2989 130.621 60.6631 130.357 60 130.357ZM17.5 114.482V55.3574C17.5 54.0313 18.0268 52.7596 18.9645 51.8219C19.9022 50.8842 21.1739 50.3574 22.5 50.3574C23.8261 50.3574 25.0979 50.8842 26.0355 51.8219C26.9732 52.7596 27.5 54.0313 27.5 55.3574V76.9574C26.9865 77.151 26.4855 77.3764 26 77.6324C24.8616 78.2899 23.8641 79.1654 23.0644 80.2088C22.2647 81.2521 21.6785 82.443 21.3395 83.7131C21.0005 84.9832 20.9153 86.3078 21.0887 87.6109C21.262 88.914 21.6907 90.1701 22.35 91.3074L34.85 112.957L39.175 110.457L26.675 88.8074C26.3132 88.2383 26.0703 87.6019 25.9609 86.9365C25.8514 86.2711 25.8777 85.5905 26.0382 84.9355C26.1986 84.2805 26.4899 83.6647 26.8944 83.1253C27.299 82.5858 27.8085 82.1337 28.3924 81.7962C28.9762 81.4587 29.6222 81.2428 30.2917 81.1615C30.9611 81.0802 31.6401 81.1352 32.2877 81.323C32.9353 81.5109 33.5383 81.8279 34.0602 82.2548C34.5822 82.6818 35.0124 83.2099 35.325 83.8074L52.5 113.532V130.357H27.5V127.857C27.5014 127.293 27.307 126.745 26.95 126.307L17.5 114.482ZM57.5 150.357H22.5V135.357H57.5V150.357Z" fill="black"/>
<path d="M47.5 140.357H52.5V145.357H47.5V140.357Z" fill="black"/>
<path d="M85 142.857H90V147.857H85V142.857Z" fill="black"/>
<path d="M70 132.857H75V137.857H70V132.857Z" fill="black"/>
</svg>
