<svg width="105" height="49" viewBox="0 0 105 49" fill="none" xmlns="http://www.w3.org/2000/svg">
<g style="mix-blend-mode:luminosity" opacity="0.5">
<path d="M27.5477 9.11719H38.1503V11.091H33.9757V22.2176H31.6875V11.091H27.5303L27.5477 9.11719ZM37.6962 12.7329H39.6525V14.5669H39.6874C39.7573 14.3049 39.8795 14.0604 40.0542 13.8159C40.2289 13.5713 40.4385 13.3442 40.7005 13.1521C40.945 12.9425 41.2245 12.7853 41.5389 12.663C41.8359 12.5407 42.1503 12.4709 42.4647 12.4709C42.7092 12.4709 42.8839 12.4883 42.9712 12.4883C43.0586 12.5058 43.1634 12.5233 43.2507 12.5233V14.532C43.111 14.4971 42.9538 14.4796 42.7966 14.4621C42.6394 14.4447 42.4996 14.4272 42.3424 14.4272C41.9931 14.4272 41.6612 14.4971 41.3468 14.6368C41.0324 14.7765 40.7704 14.9861 40.5258 15.2482C40.2988 15.5276 40.1066 15.8595 39.9669 16.2613C39.8271 16.663 39.7573 17.1346 39.7573 17.6586V22.1651H37.6612L37.6962 12.7329ZM52.8576 22.2176H50.7965V20.89H50.7616C50.4996 21.3791 50.1153 21.7459 49.6087 22.0429C49.1022 22.3398 48.5782 22.4796 48.0542 22.4796C46.814 22.4796 45.9057 22.1826 45.3468 21.5538C44.7878 20.9424 44.5083 19.9992 44.5083 18.7591V12.7329H46.6044V18.5495C46.6044 19.3879 46.7616 19.9818 47.0935 20.3136C47.4079 20.663 47.862 20.8376 48.4384 20.8376C48.8751 20.8376 49.2419 20.7678 49.5389 20.628C49.8358 20.4883 50.0804 20.3136 50.255 20.0866C50.4472 19.8595 50.5694 19.58 50.6568 19.2656C50.7441 18.9512 50.7791 18.6018 50.7791 18.235V12.7329H52.8751V22.2176H52.8576ZM56.4209 19.1783C56.4908 19.7896 56.7179 20.2088 57.1196 20.4708C57.5214 20.7154 58.0104 20.8376 58.5694 20.8376C58.7615 20.8376 58.9886 20.8202 59.2332 20.7852C59.4777 20.7503 59.7222 20.6979 59.9318 20.6106C60.1589 20.5232 60.3336 20.401 60.4733 20.2263C60.6131 20.0516 60.6829 19.842 60.6655 19.58C60.648 19.318 60.5607 19.0909 60.3685 18.9163C60.1764 18.7416 59.9493 18.6193 59.6698 18.497C59.3904 18.3922 59.0585 18.3049 58.6917 18.235C58.3249 18.1652 57.958 18.0778 57.5738 17.9905C57.1895 17.9032 56.8052 17.7984 56.4384 17.6761C56.0716 17.5538 55.7572 17.3966 55.4602 17.1695C55.1808 16.9599 54.9362 16.6979 54.779 16.3661C54.6044 16.0342 54.517 15.6499 54.517 15.1608C54.517 14.6368 54.6393 14.2176 54.9013 13.8683C55.1458 13.5189 55.4777 13.2394 55.862 13.0298C56.2463 12.8202 56.6829 12.663 57.1546 12.5757C57.6262 12.4883 58.0803 12.4534 58.4995 12.4534C58.9886 12.4534 59.4602 12.5058 59.8969 12.6106C60.3336 12.7154 60.7528 12.8726 61.1021 13.1172C61.4689 13.3442 61.7659 13.6586 61.993 14.0255C62.2375 14.3923 62.3772 14.8464 62.4471 15.3704H60.2637C60.1589 14.8639 59.9318 14.532 59.5825 14.3573C59.2157 14.1827 58.8139 14.0953 58.3423 14.0953C58.2026 14.0953 58.0104 14.1128 57.8183 14.1303C57.6087 14.1652 57.434 14.2001 57.2419 14.27C57.0672 14.3399 56.91 14.4447 56.7878 14.5669C56.6655 14.6892 56.5956 14.8639 56.5956 15.0735C56.5956 15.3355 56.6829 15.5276 56.8576 15.6848C57.0323 15.842 57.2594 15.9643 57.5563 16.0866C57.8358 16.1914 58.1677 16.2787 58.5345 16.3486C58.9013 16.4185 59.2856 16.5058 59.6698 16.5931C60.0541 16.6805 60.4209 16.7853 60.7877 16.9075C61.1545 17.0298 61.4864 17.187 61.7659 17.4141C62.0454 17.6237 62.2899 17.8857 62.4646 18.2001C62.6392 18.5145 62.7266 18.9163 62.7266 19.3704C62.7266 19.9294 62.6043 20.401 62.3423 20.8027C62.0803 21.187 61.7484 21.5189 61.3467 21.7634C60.9449 22.0079 60.4733 22.1826 59.9842 22.3049C59.4777 22.4097 58.9886 22.4796 58.4995 22.4796C57.9056 22.4796 57.3467 22.4097 56.8401 22.27C56.3336 22.1302 55.8795 21.9206 55.5126 21.6586C55.1458 21.3791 54.8489 21.0473 54.6393 20.628C54.4297 20.2263 54.3074 19.7372 54.2899 19.1608H56.4035V19.1783H56.4209ZM63.3205 12.7329H64.91V9.86827H67.006V12.7154H68.8925V14.27L67.006 14.27V19.3355C67.006 19.5625 67.0235 19.7372 67.041 19.9119C67.0584 20.0691 67.1108 20.2088 67.1632 20.3136C67.2331 20.4184 67.3379 20.5058 67.4602 20.5582C67.5999 20.6106 67.7746 20.6455 68.0191 20.6455C68.1589 20.6455 68.3161 20.6455 68.4558 20.628C68.5955 20.6106 68.7527 20.5931 68.8925 20.5582V22.1826C68.6654 22.2176 68.4383 22.235 68.2113 22.2525C67.9842 22.2874 67.7746 22.2874 67.53 22.2874C66.9711 22.2874 66.5344 22.235 66.2025 22.1302C65.8707 22.0254 65.6087 21.8682 65.4165 21.6761C65.2244 21.4665 65.1021 21.2219 65.0322 20.925C64.9624 20.628 64.9274 20.2612 64.91 19.877V14.2875H63.3205V12.698V12.7329ZM70.3597 12.7329H72.3335V14.0255H72.3684C72.6654 13.4665 73.0671 13.0822 73.5911 12.8377C74.1152 12.5931 74.6741 12.4709 75.3029 12.4709C76.054 12.4709 76.7003 12.5932 77.2592 12.8726C77.8182 13.1346 78.2723 13.484 78.6392 13.9556C79.006 14.4097 79.2854 14.9512 79.4601 15.5626C79.6348 16.1739 79.7396 16.8377 79.7396 17.5189C79.7396 18.1652 79.6522 18.7765 79.495 19.3704C79.3204 19.9643 79.0758 20.5058 78.744 20.9599C78.4121 21.4141 77.9929 21.7809 77.4689 22.0603C76.9448 22.3398 76.351 22.4796 75.6523 22.4796C75.3553 22.4796 75.0409 22.4446 74.744 22.3922C74.447 22.3398 74.1501 22.2525 73.8706 22.1302C73.5911 22.0079 73.3291 21.8507 73.1021 21.6586C72.8575 21.4665 72.6654 21.2394 72.5082 20.9949H72.4732V25.7284H70.3772V12.7329H70.3597ZM77.6785 17.484C77.6785 17.0647 77.6261 16.6455 77.5038 16.2438C77.399 15.842 77.2243 15.4927 76.9972 15.1783C76.7702 14.8639 76.4907 14.6193 76.1763 14.4272C75.8444 14.2351 75.4601 14.1477 75.0409 14.1477C74.1676 14.1477 73.5038 14.4447 73.0497 15.056C72.613 15.6674 72.3859 16.4883 72.3859 17.5014C72.3859 17.9905 72.4383 18.4272 72.5606 18.8289C72.6829 19.2307 72.8401 19.58 73.0846 19.877C73.3117 20.1739 73.5911 20.401 73.923 20.5756C74.2549 20.7503 74.6217 20.8376 75.0584 20.8376C75.5475 20.8376 75.9317 20.7328 76.2636 20.5407C76.5955 20.3486 76.8575 20.0866 77.0846 19.7896C77.2942 19.4752 77.4514 19.1259 77.5387 18.7241C77.6261 18.3049 77.6785 17.9032 77.6785 17.484ZM81.364 9.11719H83.4601V11.091H81.364V9.11719ZM81.364 12.7329H83.4601V22.2176H81.364V12.7329ZM85.3291 9.11719H87.4251V22.2176H85.3291V9.11719ZM93.8181 22.4796C93.067 22.4796 92.3858 22.3573 91.7919 22.0953C91.198 21.8333 90.709 21.5014 90.2897 21.0647C89.888 20.628 89.5736 20.0866 89.364 19.4752C89.1544 18.8639 89.0321 18.1826 89.0321 17.4665C89.0321 16.7503 89.1369 16.0866 89.364 15.4752C89.5736 14.8639 89.888 14.3399 90.2897 13.8857C90.6915 13.449 91.198 13.0997 91.7919 12.8552C92.3858 12.6106 93.067 12.4709 93.8181 12.4709C94.5692 12.4709 95.2504 12.5932 95.8443 12.8552C96.4382 13.0997 96.9273 13.449 97.3465 13.8857C97.7482 14.3224 98.0626 14.8639 98.2722 15.4752C98.4818 16.0866 98.6041 16.7503 98.6041 17.4665C98.6041 18.2001 98.4993 18.8639 98.2722 19.4752C98.0452 20.0866 97.7482 20.6106 97.3465 21.0647C96.9447 21.5014 96.4382 21.8507 95.8443 22.0953C95.2504 22.3398 94.5867 22.4796 93.8181 22.4796ZM93.8181 20.8202C94.2722 20.8202 94.6915 20.7154 95.0233 20.5232C95.3727 20.3311 95.6347 20.0691 95.8618 19.7547C96.0888 19.4403 96.246 19.0735 96.3508 18.6892C96.4556 18.2874 96.508 17.8857 96.508 17.4665C96.508 17.0647 96.4556 16.663 96.3508 16.2613C96.246 15.8595 96.0888 15.5102 95.8618 15.1958C95.6347 14.8813 95.3552 14.6368 95.0233 14.4447C94.674 14.2525 94.2722 14.1477 93.8181 14.1477C93.364 14.1477 92.9447 14.2525 92.6129 14.4447C92.2635 14.6368 92.0015 14.8988 91.7745 15.1958C91.5474 15.5102 91.3902 15.8595 91.2854 16.2613C91.1806 16.663 91.1282 17.0647 91.1282 17.4665C91.1282 17.8857 91.1806 18.2874 91.2854 18.6892C91.3902 19.0909 91.5474 19.4403 91.7745 19.7547C92.0015 20.0691 92.281 20.3311 92.6129 20.5232C92.9622 20.7328 93.364 20.8202 93.8181 20.8202ZM99.2329 12.7329H100.822V9.86827H102.918V12.7154H104.805V14.27H102.918V19.3355C102.918 19.5625 102.936 19.7372 102.953 19.9119C102.971 20.0691 103.023 20.2088 103.076 20.3136C103.146 20.4184 103.25 20.5058 103.373 20.5582C103.512 20.6106 103.687 20.6455 103.932 20.6455C104.071 20.6455 104.229 20.6455 104.368 20.628C104.508 20.6106 104.665 20.5931 104.805 20.5582V22.1826C104.578 22.2176 104.351 22.235 104.124 22.2525C103.897 22.2874 103.687 22.2874 103.443 22.2874C102.884 22.2874 102.447 22.235 102.115 22.1302C101.783 22.0254 101.521 21.8682 101.329 21.6761C101.137 21.4665 101.015 21.2219 100.945 20.925C100.875 20.628 100.84 20.2612 100.822 19.877V14.2875H99.2329V12.698V12.7329Z" fill="white"/>
<path d="M25.1003 9.11785L15.5108 9.11785L12.5589 0L9.58947 9.11785L0 9.10039L7.75542 14.7423L4.786 23.8601L12.5414 18.2182L20.2968 23.8601L17.3449 14.7423L25.1003 9.11785Z" fill="#00B67A"/>
<path d="M18.0113 16.8033L17.3475 14.7422L12.5615 18.2181L18.0113 16.8033Z" fill="#005128"/>
<g clip-path="url(#clip0_144_4278)">
<path d="M0.000976562 30.9771H17.6865V48.6868H0.000976562V30.9771ZM19.1603 30.9771H36.8458V48.6868H19.1603V30.9771ZM38.3195 30.9771H56.005V48.6868H38.3195V30.9771ZM57.4788 30.9771H75.1643V48.6868H57.4788V30.9771ZM76.6381 30.9771H94.3236V48.6868H76.6381V30.9771Z" fill="#00B67A"/>
<path d="M8.84324 42.9112L11.5329 42.2287L12.6567 45.6968L8.84324 42.9112ZM15.0332 38.4284H10.2986L8.84324 33.9641L7.38787 38.4284H2.65332L6.48518 41.1956L5.02981 45.6599L8.86166 42.8928L11.2197 41.1956L15.0332 38.4284ZM28.0025 42.9112L30.6922 42.2287L31.816 45.6968L28.0025 42.9112ZM34.1925 38.4284H29.4579L28.0025 33.9641L26.5472 38.4284H21.8126L25.6445 41.1956L24.1891 45.6599L28.021 42.8928L30.379 41.1956L34.1925 38.4284ZM47.1618 42.9112L49.8515 42.2287L50.9753 45.6968L47.1618 42.9112ZM53.3517 38.4284H48.6172L47.1618 33.9641L45.7064 38.4284H40.9719L44.8037 41.1956L43.3484 45.6599L47.1802 42.8928L49.5383 41.1956L53.3517 38.4284ZM66.3211 42.9112L69.0108 42.2287L70.1345 45.6968L66.3211 42.9112ZM72.511 38.4284H67.7765L66.3211 33.9641L64.8657 38.4284H60.1312L63.963 41.1956L62.5077 45.6599L66.3395 42.8928L68.6976 41.1956L72.511 38.4284ZM85.4804 42.9112L88.1701 42.2287L89.2938 45.6968L85.4804 42.9112ZM91.6703 38.4284H86.9358L85.4804 33.9641L84.025 38.4284H79.2905L83.1223 41.1956L81.6669 45.6599L85.4988 42.8928L87.8569 41.1956L91.6703 38.4284Z" fill="white"/>
</g>
</g>
<defs>
<clipPath id="clip0_144_4278">
<rect width="94.3226" height="17.7192" fill="white" transform="translate(0.000976562 30.9707)"/>
</clipPath>
</defs>
</svg>
